M48
; DRILL file KiCad 10.0.6 date 2026-09-29T17:24:26
; FORMAT={-:-/ absolute / metric / decimal}
; #@! TF.CreationDate,2026-09-29T17:24:26+03:00
; #@! TF.GenerationSoftware,Kicad,Pcbnew,10.0.6
; #@! TF.FileFunction,Plated,1,4,PTH
FMAT,2
METRIC
; #@! TA.AperFunction,Plated,PTH,ViaDrill
T1C0.200
; #@! TA.AperFunction,Plated,PTH,ViaDrill
T2C0.300
; #@! TA.AperFunction,Plated,PTH,ComponentDrill
T3C0.610
; #@! TA.AperFunction,Plated,PTH,ComponentDrill
T4C0.762
%
G90
G05
T1
X5.3Y26.8
X5.3Y20.4
X6.1Y29.3
X6.1Y17.9
X8.4Y23.6
X8.64Y13.1
X9.5Y20.8
X9.5Y19.8
X9.5Y15.0
X9.5Y14.0
X9.5Y7.8
X9.7Y10.75
X9.7Y9.8
X10.9Y17.3
X12.7Y16.7
X12.7Y15.8
X12.9Y15.0
X12.9Y14.0
X13.4Y13.1
X14.075Y7.8
X17.58Y28.3
X19.4Y21.3
X20.18Y28.3
X22.2Y8.7
X23.0Y8.7
X23.0Y2.9
X23.7Y16.3
X24.2Y24.8
X24.4Y15.4
X24.4Y14.4
X24.7Y21.8
X24.7Y16.3
X24.92Y30.2
X24.92Y29.2
X25.2Y24.8
X25.2Y19.2
X25.2Y18.4
X25.7Y21.8
X25.92Y28.4
X25.92Y27.4
X26.0Y19.2
X26.3Y17.3
X27.02Y30.7
X27.72Y30.7
X28.0Y25.1
X28.0Y22.7
X28.0Y20.3
X29.2Y23.9
X29.2Y21.5
X29.589Y18.196
X29.8Y8.7
X30.4Y25.1
X30.4Y20.3
X30.4Y18.2
X30.6Y8.7
X30.6Y2.9
X30.7Y14.4
X31.5Y12.0
X31.6Y23.9
X31.6Y21.5
X31.6Y17.6
X32.3Y12.0
X32.625Y28.2
X32.625Y27.2
X32.8Y25.1
X32.8Y22.7
X32.8Y20.3
X33.8Y16.5
X33.8Y15.5
X34.18Y17.6
X34.6Y30.2
X35.1Y20.92
X35.9Y22.7
X36.0Y27.1
X36.1Y25.9
X36.1Y24.9
X36.7Y22.1
X37.7Y15.8
X38.9Y20.0
X39.7Y22.1
X41.7Y24.8
X41.7Y23.0
X44.6Y26.5
X44.6Y21.3
X45.1Y18.0
X45.5Y26.5
X45.5Y21.3
X46.4Y26.5
X46.4Y21.3
T2
X1.05Y29.25
X1.5Y26.0
X1.5Y23.0
X1.5Y20.5
X1.5Y17.0
X1.5Y14.0
X1.5Y11.0
X1.5Y8.0
X1.5Y5.0
X1.5Y2.0
X4.5Y32.0
X4.5Y23.0
X4.5Y17.0
X4.5Y14.0
X4.5Y11.0
X4.5Y8.0
X4.5Y5.0
X4.5Y2.0
X7.5Y32.0
X7.5Y29.0
X7.5Y17.0
X7.5Y14.0
X7.5Y8.0
X7.5Y2.0
X7.539Y19.899
X8.078Y4.996
X10.114Y5.203
X10.5Y32.0
X10.5Y29.0
X10.709Y2.192
X10.735Y11.0
X13.0Y29.0
X13.0Y26.0
X13.5Y32.0
X13.5Y20.0
X13.5Y11.0
X13.5Y5.0
X13.5Y2.0
X13.826Y16.975
X14.5Y23.0
X16.105Y19.981
X16.5Y32.0
X16.5Y29.0
X16.5Y17.0
X16.5Y14.0
X16.5Y11.0
X16.5Y8.0
X16.5Y5.0
X16.5Y2.0
X19.16Y16.987
X19.5Y32.0
X19.5Y20.0
X19.5Y14.0
X19.5Y8.0
X19.5Y5.0
X19.51Y10.212
X19.7Y2.45
X21.9Y2.45
X22.162Y13.978
X22.5Y32.0
X22.5Y29.0
X22.5Y20.0
X22.5Y17.0
X22.5Y5.0
X22.528Y11.915
X25.042Y13.525
X25.5Y32.0
X25.5Y17.0
X25.5Y8.0
X25.5Y5.0
X25.569Y2.45
X25.8Y10.15
X28.404Y2.065
X28.491Y11.915
X28.5Y32.0
X28.5Y8.0
X28.5Y5.0
X28.601Y14.33
X31.345Y13.852
X31.5Y32.0
X31.5Y5.0
X31.75Y2.4
X31.99Y8.019
X34.0Y14.0
X34.444Y19.234
X34.5Y32.0
X34.5Y11.0
X34.5Y8.0
X34.5Y5.0
X34.5Y2.0
X37.5Y32.0
X37.5Y26.0
X37.5Y22.5
X37.5Y21.0
X37.5Y14.0
X37.5Y11.0
X37.5Y8.0
X37.5Y5.0
X37.5Y2.0
X38.059Y17.584
X40.31Y25.978
X40.5Y32.0
X40.5Y29.0
X40.5Y22.5
X40.5Y20.0
X40.5Y16.5
X40.5Y14.0
X40.5Y11.0
X40.5Y8.0
X40.5Y5.0
X40.5Y2.0
X43.5Y32.0
X43.5Y29.0
X43.5Y26.0
X43.5Y20.0
X43.5Y17.0
X43.5Y14.0
X43.5Y11.0
X43.5Y8.0
X43.5Y5.0
X43.5Y2.0
X46.5Y29.0
X46.5Y20.0
X46.5Y17.0
X46.5Y14.0
X46.5Y11.0
X46.5Y8.0
X46.5Y5.0
T4
X6.6Y10.795
X6.6Y8.795
X6.6Y6.795
X6.6Y4.795
T3
G00X2.477Y27.92
M15
G01X1.283Y27.92
M16
G05
G00X2.477Y19.28
M15
G01X1.283Y19.28
M16
G05
G00X6.274Y27.92
M15
G01X5.486Y27.92
M16
G05
G00X6.274Y19.28
M15
G01X5.486Y19.28
M16
G05
M30
