%TF.GenerationSoftware,KiCad,Pcbnew,10.0.6*%
%TF.CreationDate,2026-09-30T10:31:13+03:00*%
%TF.ProjectId,stm32-bt-board,73746d33-322d-4627-942d-626f6172642e,rev?*%
%TF.SameCoordinates,PX7641700PY7270e00*%
%TF.FileFunction,Legend,Bot*%
%TF.FilePolarity,Positive*%
%FSLAX46Y46*%
G04 Gerber Fmt 4.6, Leading zero omitted, Abs format (unit mm)*
G04 Created by KiCad (PCBNEW 10.0.6) date 2026-09-30 10:31:13*
%MOMM*%
%LPD*%
G01*
G04 APERTURE LIST*
%ADD10C,0.150000*%
%ADD11C,0.508000*%
%ADD12C,0.120000*%
G04 APERTURE END LIST*
D10*
X23416839Y13691181D02*
X23750172Y14167372D01*
X23988267Y13691181D02*
X23988267Y14691181D01*
X23988267Y14691181D02*
X23607315Y14691181D01*
X23607315Y14691181D02*
X23512077Y14643562D01*
X23512077Y14643562D02*
X23464458Y14595943D01*
X23464458Y14595943D02*
X23416839Y14500705D01*
X23416839Y14500705D02*
X23416839Y14357848D01*
X23416839Y14357848D02*
X23464458Y14262610D01*
X23464458Y14262610D02*
X23512077Y14214991D01*
X23512077Y14214991D02*
X23607315Y14167372D01*
X23607315Y14167372D02*
X23988267Y14167372D01*
X22512077Y14691181D02*
X22988267Y14691181D01*
X22988267Y14691181D02*
X23035886Y14214991D01*
X23035886Y14214991D02*
X22988267Y14262610D01*
X22988267Y14262610D02*
X22893029Y14310229D01*
X22893029Y14310229D02*
X22654934Y14310229D01*
X22654934Y14310229D02*
X22559696Y14262610D01*
X22559696Y14262610D02*
X22512077Y14214991D01*
X22512077Y14214991D02*
X22464458Y14119753D01*
X22464458Y14119753D02*
X22464458Y13881658D01*
X22464458Y13881658D02*
X22512077Y13786420D01*
X22512077Y13786420D02*
X22559696Y13738800D01*
X22559696Y13738800D02*
X22654934Y13691181D01*
X22654934Y13691181D02*
X22893029Y13691181D01*
X22893029Y13691181D02*
X22988267Y13738800D01*
X22988267Y13738800D02*
X23035886Y13786420D01*
X26316839Y10745181D02*
X26650172Y11221372D01*
X26888267Y10745181D02*
X26888267Y11745181D01*
X26888267Y11745181D02*
X26507315Y11745181D01*
X26507315Y11745181D02*
X26412077Y11697562D01*
X26412077Y11697562D02*
X26364458Y11649943D01*
X26364458Y11649943D02*
X26316839Y11554705D01*
X26316839Y11554705D02*
X26316839Y11411848D01*
X26316839Y11411848D02*
X26364458Y11316610D01*
X26364458Y11316610D02*
X26412077Y11268991D01*
X26412077Y11268991D02*
X26507315Y11221372D01*
X26507315Y11221372D02*
X26888267Y11221372D01*
X25459696Y11411848D02*
X25459696Y10745181D01*
X25697791Y11792800D02*
X25935886Y11078515D01*
X25935886Y11078515D02*
X25316839Y11078515D01*
X23443030Y15065820D02*
X23490649Y15018200D01*
X23490649Y15018200D02*
X23633506Y14970581D01*
X23633506Y14970581D02*
X23728744Y14970581D01*
X23728744Y14970581D02*
X23871601Y15018200D01*
X23871601Y15018200D02*
X23966839Y15113439D01*
X23966839Y15113439D02*
X24014458Y15208677D01*
X24014458Y15208677D02*
X24062077Y15399153D01*
X24062077Y15399153D02*
X24062077Y15542010D01*
X24062077Y15542010D02*
X24014458Y15732486D01*
X24014458Y15732486D02*
X23966839Y15827724D01*
X23966839Y15827724D02*
X23871601Y15922962D01*
X23871601Y15922962D02*
X23728744Y15970581D01*
X23728744Y15970581D02*
X23633506Y15970581D01*
X23633506Y15970581D02*
X23490649Y15922962D01*
X23490649Y15922962D02*
X23443030Y15875343D01*
X22490649Y14970581D02*
X23062077Y14970581D01*
X22776363Y14970581D02*
X22776363Y15970581D01*
X22776363Y15970581D02*
X22871601Y15827724D01*
X22871601Y15827724D02*
X22966839Y15732486D01*
X22966839Y15732486D02*
X23062077Y15684867D01*
X21633506Y15970581D02*
X21823982Y15970581D01*
X21823982Y15970581D02*
X21919220Y15922962D01*
X21919220Y15922962D02*
X21966839Y15875343D01*
X21966839Y15875343D02*
X22062077Y15732486D01*
X22062077Y15732486D02*
X22109696Y15542010D01*
X22109696Y15542010D02*
X22109696Y15161058D01*
X22109696Y15161058D02*
X22062077Y15065820D01*
X22062077Y15065820D02*
X22014458Y15018200D01*
X22014458Y15018200D02*
X21919220Y14970581D01*
X21919220Y14970581D02*
X21728744Y14970581D01*
X21728744Y14970581D02*
X21633506Y15018200D01*
X21633506Y15018200D02*
X21585887Y15065820D01*
X21585887Y15065820D02*
X21538268Y15161058D01*
X21538268Y15161058D02*
X21538268Y15399153D01*
X21538268Y15399153D02*
X21585887Y15494391D01*
X21585887Y15494391D02*
X21633506Y15542010D01*
X21633506Y15542010D02*
X21728744Y15589629D01*
X21728744Y15589629D02*
X21919220Y15589629D01*
X21919220Y15589629D02*
X22014458Y15542010D01*
X22014458Y15542010D02*
X22062077Y15494391D01*
X22062077Y15494391D02*
X22109696Y15399153D01*
%TO.C,J4*%
D11*
X6981000Y14653100D02*
G75*
G02*
X6219000Y14653100I-381000J0D01*
G01*
X6219000Y14653100D02*
G75*
G02*
X6981000Y14653100I381000J0D01*
G01*
%TO.C,R5*%
D12*
X25853641Y14780000D02*
X25546359Y14780000D01*
X25853641Y14020000D02*
X25546359Y14020000D01*
%TO.C,R4*%
X25782600Y12703359D02*
X25782600Y13010641D01*
X26542600Y12703359D02*
X26542600Y13010641D01*
%TO.C,C16*%
X25787836Y15760000D02*
X25572164Y15760000D01*
X25787836Y15040000D02*
X25572164Y15040000D01*
%TD*%
M02*
