%TF.GenerationSoftware,KiCad,Pcbnew,10.0.6*%
%TF.CreationDate,2026-09-29T17:19:22+03:00*%
%TF.ProjectId,stm32-bt-board,73746d33-322d-4627-942d-626f6172642e,rev?*%
%TF.SameCoordinates,PX7641700PY7270e00*%
%TF.FileFunction,Copper,L2,Inr*%
%TF.FilePolarity,Positive*%
%FSLAX46Y46*%
G04 Gerber Fmt 4.6, Leading zero omitted, Abs format (unit mm)*
G04 Created by KiCad (PCBNEW 10.0.6) date 2026-09-29 17:19:22*
%MOMM*%
%LPD*%
G01*
G04 APERTURE LIST*
%TA.AperFunction,ComponentPad*%
%ADD10O,1.983740X1.089660*%
%TD*%
%TA.AperFunction,ComponentPad*%
%ADD11O,2.430780X1.089660*%
%TD*%
%TA.AperFunction,ComponentPad*%
%ADD12C,1.270000*%
%TD*%
%TA.AperFunction,ViaPad*%
%ADD13C,0.750000*%
%TD*%
%TA.AperFunction,ViaPad*%
%ADD14C,0.650000*%
%TD*%
G04 APERTURE END LIST*
D10*
%TO.N,GND*%
%TO.C,J2*%
X5879951Y27920000D03*
D11*
X1879950Y27920000D03*
D10*
X5879951Y19280000D03*
D11*
X1879950Y19280000D03*
%TD*%
D12*
%TO.N,GND*%
%TO.C,J4*%
X6600000Y4795101D03*
%TD*%
D13*
%TO.N,GND*%
X31989884Y8018637D03*
D14*
X9500000Y19800000D03*
D13*
X40500000Y32000000D03*
X19700173Y2450000D03*
X1500000Y23000000D03*
D14*
X31600000Y21500000D03*
D13*
X25500000Y32000000D03*
X14500000Y23000000D03*
X28500000Y5000000D03*
X19500000Y32000000D03*
D14*
X30400000Y20300000D03*
D13*
X7500000Y2000000D03*
X43500000Y17000000D03*
D14*
X32625000Y27200000D03*
X44600000Y26500000D03*
D13*
X43500000Y11000000D03*
X16500000Y29000000D03*
D14*
X44600000Y21300000D03*
D13*
X22500000Y20000000D03*
D14*
X29200000Y23900000D03*
X22200000Y8700000D03*
D13*
X25042341Y13525160D03*
X19500000Y14000000D03*
X25569184Y2450000D03*
X31750173Y2400000D03*
X8077742Y4995741D03*
X40500000Y5000000D03*
D14*
X29800000Y8700000D03*
D13*
X4500000Y8000000D03*
X16500000Y5000000D03*
D14*
X24920000Y30200000D03*
D13*
X28490715Y11915337D03*
X37500000Y2000000D03*
X43500000Y32000000D03*
X40500000Y16500000D03*
X37500000Y14000000D03*
X19159740Y16987421D03*
X4500000Y2000000D03*
X22500000Y17000000D03*
X34444089Y19234026D03*
X10500000Y32000000D03*
D14*
X25920000Y28400000D03*
X35100000Y20920000D03*
X19400000Y21300000D03*
X36000000Y27100000D03*
X9500000Y15000000D03*
D13*
X13000000Y29000000D03*
D14*
X24700000Y16300000D03*
X24920000Y29200000D03*
D13*
X43500000Y14000000D03*
D14*
X24400000Y14400000D03*
X8640173Y13100000D03*
D13*
X10709034Y2192208D03*
D14*
X9700000Y9800000D03*
D13*
X22500000Y29000000D03*
X16500000Y2000000D03*
X1500000Y20500000D03*
X40500000Y29000000D03*
D14*
X9500000Y20800000D03*
X24200000Y24800000D03*
D13*
X46500000Y29000000D03*
D14*
X37700000Y15800000D03*
D13*
X43500000Y29000000D03*
X25500000Y5000000D03*
X37500000Y5000000D03*
X40500000Y11000000D03*
X4500000Y11000000D03*
D14*
X9500000Y7800000D03*
D13*
X31500000Y32000000D03*
X31344860Y13852237D03*
X40500000Y14000000D03*
X28403850Y2065496D03*
D14*
X26300000Y17300000D03*
D13*
X34500000Y11000000D03*
X46500000Y11000000D03*
X28500000Y32000000D03*
X13500000Y2000000D03*
X19500000Y5000000D03*
X1500000Y26000000D03*
D14*
X30700000Y14400000D03*
D13*
X40309904Y25977636D03*
X37500000Y26000000D03*
D14*
X45500000Y21300000D03*
X25700000Y21800000D03*
D13*
X13500000Y20000000D03*
D14*
X31500000Y12000000D03*
D13*
X21900173Y2450000D03*
D14*
X20180000Y28300000D03*
X6100000Y29300000D03*
D13*
X43500000Y2000000D03*
X13500000Y32000000D03*
X7500000Y8000000D03*
X19509579Y10211661D03*
D14*
X34180000Y17600000D03*
D13*
X40500000Y20000000D03*
X10113694Y5203133D03*
X22500000Y5000000D03*
D14*
X46400000Y21300000D03*
D13*
X40500000Y8000000D03*
X25500000Y8000000D03*
D14*
X9500000Y14000000D03*
D13*
X43500000Y26000000D03*
X25500000Y17000000D03*
X13000000Y26000000D03*
X22527852Y11915337D03*
X34500000Y5000000D03*
X37500000Y11000000D03*
X22500000Y32000000D03*
X10734824Y11000001D03*
X25800173Y10150000D03*
D14*
X29200000Y21500000D03*
D13*
X1500000Y2000000D03*
D14*
X28000000Y20300000D03*
D13*
X16500000Y32000000D03*
D14*
X41700000Y23000000D03*
D13*
X4500000Y23000000D03*
X13500000Y5000000D03*
D14*
X6100000Y17900000D03*
D13*
X46500000Y5000000D03*
X4500000Y32000000D03*
X4500000Y14000000D03*
X7539137Y19899361D03*
X46500000Y8000000D03*
X1500000Y14000000D03*
X28500000Y8000000D03*
D14*
X32625000Y28200000D03*
D13*
X4500000Y17000000D03*
D14*
X39700000Y22100000D03*
D13*
X16104637Y19981131D03*
X43500000Y8000000D03*
X16500000Y8000000D03*
D14*
X31600000Y23900000D03*
D13*
X34000000Y14000000D03*
D14*
X34600000Y30200000D03*
D13*
X16500000Y17000000D03*
X31500000Y5000000D03*
D14*
X24400000Y15400000D03*
X30400000Y25100000D03*
D13*
X7500000Y29000000D03*
D14*
X5300000Y26800000D03*
D13*
X13500000Y11000000D03*
D14*
X5300000Y20400000D03*
D13*
X46500000Y17000000D03*
X4500000Y5000000D03*
X22161548Y13978036D03*
D14*
X28000000Y22700000D03*
X24700000Y21800000D03*
D13*
X37500000Y21000000D03*
X37500000Y8000000D03*
D14*
X32800000Y25100000D03*
D13*
X13825871Y16974841D03*
X7500000Y32000000D03*
X16500000Y14000000D03*
X37500000Y22500000D03*
D14*
X33800000Y16500000D03*
X30600000Y2900000D03*
D13*
X16500000Y11000000D03*
X19500000Y8000000D03*
X7500000Y17000000D03*
X1500000Y11000000D03*
D14*
X36100000Y24900000D03*
D13*
X1500000Y17000000D03*
D14*
X46400000Y26500000D03*
D13*
X46500000Y14000000D03*
X34500000Y32000000D03*
D14*
X10900000Y17300000D03*
D13*
X38059105Y17583866D03*
X43500000Y5000000D03*
X34500000Y2000000D03*
D14*
X8400000Y23600000D03*
X25920000Y27400000D03*
D13*
X40500000Y2000000D03*
D14*
X30400000Y18200000D03*
D13*
X19500000Y20000000D03*
X1500000Y5000000D03*
D14*
X36700000Y22100000D03*
X45500000Y26500000D03*
D13*
X37500000Y32000000D03*
X40500000Y22500000D03*
D14*
X23700000Y16300000D03*
X32800000Y20300000D03*
D13*
X43500000Y20000000D03*
D14*
X38900000Y20000000D03*
D13*
X34500000Y8000000D03*
X46500000Y20000000D03*
D14*
X28000000Y25100000D03*
D13*
X28600639Y14330273D03*
X1050173Y29250000D03*
X7500000Y14000000D03*
D14*
X32800000Y22700000D03*
D13*
X10500000Y29000000D03*
X1500000Y8000000D03*
D14*
X41700000Y24800000D03*
%TD*%
%TA.AperFunction,Conductor*%
%TO.N,GND*%
G36*
X47003614Y32699144D02*
G01*
X47129217Y32686773D01*
X47143435Y32683945D01*
X47260715Y32648369D01*
X47274117Y32642817D01*
X47382191Y32585050D01*
X47394253Y32576991D01*
X47488986Y32499245D01*
X47499244Y32488987D01*
X47576990Y32394254D01*
X47585049Y32382192D01*
X47642816Y32274118D01*
X47648368Y32260716D01*
X47683943Y32143441D01*
X47686773Y32129214D01*
X47699144Y32003616D01*
X47699500Y31996362D01*
X47699500Y1003639D01*
X47699144Y996385D01*
X47686773Y870787D01*
X47683943Y856560D01*
X47648368Y739285D01*
X47642816Y725883D01*
X47585049Y617809D01*
X47576990Y605747D01*
X47499244Y511014D01*
X47488986Y500756D01*
X47394253Y423010D01*
X47382191Y414951D01*
X47274117Y357184D01*
X47260715Y351632D01*
X47143440Y316057D01*
X47129213Y313227D01*
X47019418Y302413D01*
X47003613Y300856D01*
X46996361Y300500D01*
X1003639Y300500D01*
X996386Y300856D01*
X975832Y302881D01*
X870786Y313227D01*
X856559Y316057D01*
X739284Y351632D01*
X725882Y357184D01*
X617808Y414951D01*
X605746Y423010D01*
X511013Y500756D01*
X500755Y511014D01*
X423009Y605747D01*
X414950Y617809D01*
X357183Y725883D01*
X351631Y739285D01*
X316055Y856565D01*
X313227Y870783D01*
X300856Y996386D01*
X300500Y1003639D01*
X300500Y2947461D01*
X22639500Y2947461D01*
X22639500Y2852539D01*
X22664067Y2760852D01*
X22664068Y2760850D01*
X22664069Y2760848D01*
X22711525Y2678652D01*
X22711526Y2678651D01*
X22711528Y2678648D01*
X22778648Y2611528D01*
X22860852Y2564067D01*
X22952539Y2539500D01*
X22952541Y2539500D01*
X23047459Y2539500D01*
X23047461Y2539500D01*
X23139148Y2564067D01*
X23221352Y2611528D01*
X23288472Y2678648D01*
X23335933Y2760852D01*
X23360500Y2852539D01*
X23360500Y2947461D01*
X23335933Y3039148D01*
X23288472Y3121352D01*
X23221352Y3188472D01*
X23221349Y3188474D01*
X23221348Y3188475D01*
X23139152Y3235931D01*
X23139150Y3235932D01*
X23139149Y3235933D01*
X23139148Y3235933D01*
X23047461Y3260500D01*
X22952539Y3260500D01*
X22860852Y3235933D01*
X22860851Y3235933D01*
X22860849Y3235932D01*
X22860847Y3235931D01*
X22778651Y3188475D01*
X22711525Y3121349D01*
X22664069Y3039153D01*
X22664068Y3039151D01*
X22664067Y3039149D01*
X22664067Y3039148D01*
X22639500Y2947461D01*
X300500Y2947461D01*
X300500Y4897040D01*
X5565000Y4897040D01*
X5565000Y4693163D01*
X5604772Y4493210D01*
X5604774Y4493203D01*
X5682794Y4304846D01*
X5783000Y4154879D01*
X6256382Y4628262D01*
X6295124Y4561161D01*
X6366060Y4490225D01*
X6433159Y4451485D01*
X5959776Y3978103D01*
X5959776Y3978102D01*
X6109744Y3877896D01*
X6298101Y3799876D01*
X6298108Y3799874D01*
X6498062Y3760101D01*
X6701938Y3760101D01*
X6901891Y3799874D01*
X6901898Y3799876D01*
X7090252Y3877895D01*
X7240222Y3978103D01*
X6766840Y4451485D01*
X6833940Y4490225D01*
X6904876Y4561161D01*
X6943616Y4628261D01*
X7416998Y4154879D01*
X7517206Y4304849D01*
X7595225Y4493203D01*
X7595227Y4493210D01*
X7635000Y4693163D01*
X7635000Y4897040D01*
X7595227Y5096993D01*
X7595225Y5097000D01*
X7517205Y5285357D01*
X7416998Y5435325D01*
X6943615Y4961943D01*
X6904876Y5029041D01*
X6833940Y5099977D01*
X6766839Y5138719D01*
X7240222Y5612101D01*
X7240222Y5612102D01*
X7090255Y5712307D01*
X6901898Y5790327D01*
X6901891Y5790329D01*
X6701938Y5830101D01*
X6498062Y5830101D01*
X6298108Y5790329D01*
X6298101Y5790327D01*
X6109747Y5712308D01*
X5959776Y5612101D01*
X6433159Y5138718D01*
X6366060Y5099977D01*
X6295124Y5029041D01*
X6256383Y4961942D01*
X5783000Y5435325D01*
X5682793Y5285354D01*
X5604774Y5097000D01*
X5604772Y5096993D01*
X5565000Y4897040D01*
X300500Y4897040D01*
X300500Y6858281D01*
X5958500Y6858281D01*
X5958500Y6731918D01*
X5983150Y6607987D01*
X5983152Y6607980D01*
X6031510Y6491235D01*
X6101714Y6386167D01*
X6191068Y6296813D01*
X6296136Y6226609D01*
X6412881Y6178251D01*
X6536818Y6153599D01*
X6663182Y6153599D01*
X6787119Y6178251D01*
X6903864Y6226609D01*
X7008932Y6296813D01*
X7098286Y6386167D01*
X7168490Y6491235D01*
X7216848Y6607980D01*
X7241500Y6731917D01*
X7241500Y6858281D01*
X7216848Y6982218D01*
X7168490Y7098963D01*
X7098286Y7204031D01*
X7008932Y7293385D01*
X6903864Y7363589D01*
X6903861Y7363591D01*
X6903860Y7363591D01*
X6787119Y7411947D01*
X6787112Y7411949D01*
X6663182Y7436599D01*
X6536818Y7436599D01*
X6412887Y7411949D01*
X6412880Y7411947D01*
X6296139Y7363591D01*
X6191068Y7293386D01*
X6191067Y7293384D01*
X6101715Y7204032D01*
X6101713Y7204031D01*
X6031508Y7098960D01*
X5983152Y6982219D01*
X5983150Y6982212D01*
X5958500Y6858281D01*
X300500Y6858281D01*
X300500Y7847461D01*
X13714500Y7847461D01*
X13714500Y7752539D01*
X13739067Y7660852D01*
X13739068Y7660850D01*
X13739069Y7660848D01*
X13786525Y7578652D01*
X13786526Y7578651D01*
X13786528Y7578648D01*
X13853648Y7511528D01*
X13935852Y7464067D01*
X14027539Y7439500D01*
X14027541Y7439500D01*
X14122459Y7439500D01*
X14122461Y7439500D01*
X14214148Y7464067D01*
X14296352Y7511528D01*
X14363472Y7578648D01*
X14410933Y7660852D01*
X14435500Y7752539D01*
X14435500Y7847461D01*
X14410933Y7939148D01*
X14363472Y8021352D01*
X14296352Y8088472D01*
X14296349Y8088474D01*
X14296348Y8088475D01*
X14214152Y8135931D01*
X14214150Y8135932D01*
X14214149Y8135933D01*
X14214148Y8135933D01*
X14122461Y8160500D01*
X14027539Y8160500D01*
X13935852Y8135933D01*
X13935851Y8135933D01*
X13935849Y8135932D01*
X13935847Y8135931D01*
X13853651Y8088475D01*
X13786525Y8021349D01*
X13739069Y7939153D01*
X13739068Y7939151D01*
X13739067Y7939149D01*
X13739067Y7939148D01*
X13714500Y7847461D01*
X300500Y7847461D01*
X300500Y8858282D01*
X5958500Y8858282D01*
X5958500Y8731919D01*
X5983150Y8607988D01*
X5983152Y8607981D01*
X6002674Y8560850D01*
X6031510Y8491236D01*
X6101714Y8386168D01*
X6191068Y8296814D01*
X6296136Y8226610D01*
X6412881Y8178252D01*
X6536818Y8153600D01*
X6663182Y8153600D01*
X6787119Y8178252D01*
X6903864Y8226610D01*
X7008932Y8296814D01*
X7098286Y8386168D01*
X7168490Y8491236D01*
X7216848Y8607981D01*
X7241500Y8731918D01*
X7241500Y8747461D01*
X22639500Y8747461D01*
X22639500Y8652539D01*
X22664067Y8560852D01*
X22664068Y8560850D01*
X22664069Y8560848D01*
X22711525Y8478652D01*
X22711526Y8478651D01*
X22711528Y8478648D01*
X22778648Y8411528D01*
X22860852Y8364067D01*
X22952539Y8339500D01*
X22952541Y8339500D01*
X23047459Y8339500D01*
X23047461Y8339500D01*
X23139148Y8364067D01*
X23221352Y8411528D01*
X23288472Y8478648D01*
X23335933Y8560852D01*
X23360500Y8652539D01*
X23360500Y8747461D01*
X30239500Y8747461D01*
X30239500Y8652539D01*
X30264067Y8560852D01*
X30264068Y8560850D01*
X30264069Y8560848D01*
X30311525Y8478652D01*
X30311526Y8478651D01*
X30311528Y8478648D01*
X30378648Y8411528D01*
X30460852Y8364067D01*
X30552539Y8339500D01*
X30552541Y8339500D01*
X30647459Y8339500D01*
X30647461Y8339500D01*
X30739148Y8364067D01*
X30821352Y8411528D01*
X30888472Y8478648D01*
X30935933Y8560852D01*
X30960500Y8652539D01*
X30960500Y8747461D01*
X30935933Y8839148D01*
X30888472Y8921352D01*
X30821352Y8988472D01*
X30821349Y8988474D01*
X30821348Y8988475D01*
X30739152Y9035931D01*
X30739150Y9035932D01*
X30739149Y9035933D01*
X30739148Y9035933D01*
X30647461Y9060500D01*
X30552539Y9060500D01*
X30460852Y9035933D01*
X30460851Y9035933D01*
X30460849Y9035932D01*
X30460847Y9035931D01*
X30378651Y8988475D01*
X30311525Y8921349D01*
X30264069Y8839153D01*
X30264068Y8839151D01*
X30264067Y8839149D01*
X30264067Y8839148D01*
X30239500Y8747461D01*
X23360500Y8747461D01*
X23335933Y8839148D01*
X23288472Y8921352D01*
X23221352Y8988472D01*
X23221349Y8988474D01*
X23221348Y8988475D01*
X23139152Y9035931D01*
X23139150Y9035932D01*
X23139149Y9035933D01*
X23139148Y9035933D01*
X23047461Y9060500D01*
X22952539Y9060500D01*
X22860852Y9035933D01*
X22860851Y9035933D01*
X22860849Y9035932D01*
X22860847Y9035931D01*
X22778651Y8988475D01*
X22711525Y8921349D01*
X22664069Y8839153D01*
X22664068Y8839151D01*
X22664067Y8839149D01*
X22664067Y8839148D01*
X22639500Y8747461D01*
X7241500Y8747461D01*
X7241500Y8858282D01*
X7216848Y8982219D01*
X7168490Y9098964D01*
X7098286Y9204032D01*
X7008932Y9293386D01*
X6903864Y9363590D01*
X6903861Y9363592D01*
X6903860Y9363592D01*
X6787119Y9411948D01*
X6787112Y9411950D01*
X6663182Y9436600D01*
X6536818Y9436600D01*
X6412887Y9411950D01*
X6412880Y9411948D01*
X6296139Y9363592D01*
X6191068Y9293387D01*
X6191067Y9293385D01*
X6101715Y9204033D01*
X6101713Y9204032D01*
X6031508Y9098961D01*
X5983152Y8982220D01*
X5983150Y8982213D01*
X5958500Y8858282D01*
X300500Y8858282D01*
X300500Y10858281D01*
X5958500Y10858281D01*
X5958500Y10731918D01*
X5983150Y10607987D01*
X5983152Y10607980D01*
X6031510Y10491235D01*
X6051360Y10461528D01*
X6083070Y10414069D01*
X6101714Y10386167D01*
X6191068Y10296813D01*
X6296136Y10226609D01*
X6412881Y10178251D01*
X6536818Y10153599D01*
X6663182Y10153599D01*
X6787119Y10178251D01*
X6903864Y10226609D01*
X7008932Y10296813D01*
X7098286Y10386167D01*
X7168490Y10491235D01*
X7216848Y10607980D01*
X7241500Y10731917D01*
X7241500Y10797461D01*
X9339500Y10797461D01*
X9339500Y10702539D01*
X9364067Y10610852D01*
X9364068Y10610850D01*
X9364069Y10610848D01*
X9411525Y10528652D01*
X9411526Y10528651D01*
X9411528Y10528648D01*
X9478648Y10461528D01*
X9560852Y10414067D01*
X9652539Y10389500D01*
X9652541Y10389500D01*
X9747459Y10389500D01*
X9747461Y10389500D01*
X9839148Y10414067D01*
X9921352Y10461528D01*
X9988472Y10528648D01*
X10035933Y10610852D01*
X10060500Y10702539D01*
X10060500Y10797461D01*
X10035933Y10889148D01*
X9988472Y10971352D01*
X9921352Y11038472D01*
X9921349Y11038474D01*
X9921348Y11038475D01*
X9839152Y11085931D01*
X9839150Y11085932D01*
X9839149Y11085933D01*
X9839148Y11085933D01*
X9747461Y11110500D01*
X9652539Y11110500D01*
X9560852Y11085933D01*
X9560851Y11085933D01*
X9560849Y11085932D01*
X9560847Y11085931D01*
X9478651Y11038475D01*
X9411525Y10971349D01*
X9364069Y10889153D01*
X9364068Y10889151D01*
X9364067Y10889149D01*
X9364067Y10889148D01*
X9339500Y10797461D01*
X7241500Y10797461D01*
X7241500Y10858281D01*
X7216848Y10982218D01*
X7168490Y11098963D01*
X7098286Y11204031D01*
X7008932Y11293385D01*
X6903864Y11363589D01*
X6903861Y11363591D01*
X6903860Y11363591D01*
X6787119Y11411947D01*
X6787112Y11411949D01*
X6663182Y11436599D01*
X6536818Y11436599D01*
X6412887Y11411949D01*
X6412880Y11411947D01*
X6296139Y11363591D01*
X6191068Y11293386D01*
X6191067Y11293384D01*
X6101715Y11204032D01*
X6101713Y11204031D01*
X6031508Y11098960D01*
X5983152Y10982219D01*
X5983150Y10982212D01*
X5958500Y10858281D01*
X300500Y10858281D01*
X300500Y12047461D01*
X31939500Y12047461D01*
X31939500Y11952539D01*
X31964067Y11860852D01*
X31964068Y11860850D01*
X31964069Y11860848D01*
X32011525Y11778652D01*
X32011526Y11778651D01*
X32011528Y11778648D01*
X32078648Y11711528D01*
X32160852Y11664067D01*
X32252539Y11639500D01*
X32252541Y11639500D01*
X32347459Y11639500D01*
X32347461Y11639500D01*
X32439148Y11664067D01*
X32521352Y11711528D01*
X32588472Y11778648D01*
X32635933Y11860852D01*
X32660500Y11952539D01*
X32660500Y12047461D01*
X32635933Y12139148D01*
X32588472Y12221352D01*
X32521352Y12288472D01*
X32521349Y12288474D01*
X32521348Y12288475D01*
X32439152Y12335931D01*
X32439150Y12335932D01*
X32439149Y12335933D01*
X32439148Y12335933D01*
X32347461Y12360500D01*
X32252539Y12360500D01*
X32160852Y12335933D01*
X32160851Y12335933D01*
X32160849Y12335932D01*
X32160847Y12335931D01*
X32078651Y12288475D01*
X32011525Y12221349D01*
X31964069Y12139153D01*
X31964068Y12139151D01*
X31964067Y12139149D01*
X31964067Y12139148D01*
X31939500Y12047461D01*
X300500Y12047461D01*
X300500Y13147461D01*
X13039500Y13147461D01*
X13039500Y13052539D01*
X13064067Y12960852D01*
X13064068Y12960850D01*
X13064069Y12960848D01*
X13111525Y12878652D01*
X13111526Y12878651D01*
X13111528Y12878648D01*
X13178648Y12811528D01*
X13260852Y12764067D01*
X13352539Y12739500D01*
X13352541Y12739500D01*
X13447459Y12739500D01*
X13447461Y12739500D01*
X13539148Y12764067D01*
X13621352Y12811528D01*
X13688472Y12878648D01*
X13735933Y12960852D01*
X13760500Y13052539D01*
X13760500Y13147461D01*
X13735933Y13239148D01*
X13688472Y13321352D01*
X13621352Y13388472D01*
X13621349Y13388474D01*
X13621348Y13388475D01*
X13539152Y13435931D01*
X13539150Y13435932D01*
X13539149Y13435933D01*
X13539148Y13435933D01*
X13447461Y13460500D01*
X13352539Y13460500D01*
X13260852Y13435933D01*
X13260851Y13435933D01*
X13260849Y13435932D01*
X13260847Y13435931D01*
X13178651Y13388475D01*
X13111525Y13321349D01*
X13064069Y13239153D01*
X13064068Y13239151D01*
X13064067Y13239149D01*
X13064067Y13239148D01*
X13039500Y13147461D01*
X300500Y13147461D01*
X300500Y14047461D01*
X12539500Y14047461D01*
X12539500Y13952539D01*
X12564067Y13860852D01*
X12564068Y13860850D01*
X12564069Y13860848D01*
X12611525Y13778652D01*
X12611526Y13778651D01*
X12611528Y13778648D01*
X12678648Y13711528D01*
X12760852Y13664067D01*
X12852539Y13639500D01*
X12852541Y13639500D01*
X12947459Y13639500D01*
X12947461Y13639500D01*
X13039148Y13664067D01*
X13121352Y13711528D01*
X13188472Y13778648D01*
X13235933Y13860852D01*
X13260500Y13952539D01*
X13260500Y14047461D01*
X13235933Y14139148D01*
X13188472Y14221352D01*
X13121352Y14288472D01*
X13121349Y14288474D01*
X13121348Y14288475D01*
X13039152Y14335931D01*
X13039150Y14335932D01*
X13039149Y14335933D01*
X13039148Y14335933D01*
X12947461Y14360500D01*
X12852539Y14360500D01*
X12760852Y14335933D01*
X12760851Y14335933D01*
X12760849Y14335932D01*
X12760847Y14335931D01*
X12678651Y14288475D01*
X12611525Y14221349D01*
X12564069Y14139153D01*
X12564068Y14139151D01*
X12564067Y14139149D01*
X12564067Y14139148D01*
X12539500Y14047461D01*
X300500Y14047461D01*
X300500Y15847461D01*
X12339500Y15847461D01*
X12339500Y15752539D01*
X12364067Y15660852D01*
X12364068Y15660850D01*
X12364069Y15660848D01*
X12411525Y15578652D01*
X12411526Y15578651D01*
X12411528Y15578648D01*
X12478648Y15511528D01*
X12560852Y15464067D01*
X12652539Y15439500D01*
X12652541Y15439500D01*
X12664063Y15439500D01*
X12716389Y15417826D01*
X12738063Y15365500D01*
X12716389Y15313174D01*
X12701063Y15301414D01*
X12678651Y15288475D01*
X12611525Y15221349D01*
X12564069Y15139153D01*
X12564068Y15139151D01*
X12564067Y15139149D01*
X12564067Y15139148D01*
X12539500Y15047461D01*
X12539500Y14952539D01*
X12564067Y14860852D01*
X12564068Y14860850D01*
X12564069Y14860848D01*
X12611525Y14778652D01*
X12611526Y14778651D01*
X12611528Y14778648D01*
X12678648Y14711528D01*
X12760852Y14664067D01*
X12852539Y14639500D01*
X12852541Y14639500D01*
X12947459Y14639500D01*
X12947461Y14639500D01*
X13039148Y14664067D01*
X13121352Y14711528D01*
X13188472Y14778648D01*
X13235933Y14860852D01*
X13260500Y14952539D01*
X13260500Y15047461D01*
X13235933Y15139148D01*
X13188472Y15221352D01*
X13121352Y15288472D01*
X13121349Y15288474D01*
X13121348Y15288475D01*
X13039152Y15335931D01*
X13039150Y15335932D01*
X13039149Y15335933D01*
X13039148Y15335933D01*
X12947461Y15360500D01*
X12935937Y15360500D01*
X12883611Y15382174D01*
X12861937Y15434500D01*
X12883611Y15486826D01*
X12898937Y15498586D01*
X12913351Y15506909D01*
X12921352Y15511528D01*
X12957285Y15547461D01*
X33439500Y15547461D01*
X33439500Y15452539D01*
X33458354Y15382174D01*
X33464068Y15360850D01*
X33464069Y15360848D01*
X33511525Y15278652D01*
X33511526Y15278651D01*
X33511528Y15278648D01*
X33578648Y15211528D01*
X33660852Y15164067D01*
X33752539Y15139500D01*
X33752541Y15139500D01*
X33847459Y15139500D01*
X33847461Y15139500D01*
X33939148Y15164067D01*
X34021352Y15211528D01*
X34088472Y15278648D01*
X34135933Y15360852D01*
X34160500Y15452539D01*
X34160500Y15547461D01*
X34135933Y15639148D01*
X34088472Y15721352D01*
X34021352Y15788472D01*
X34021349Y15788474D01*
X34021348Y15788475D01*
X33939152Y15835931D01*
X33939150Y15835932D01*
X33939149Y15835933D01*
X33939148Y15835933D01*
X33847461Y15860500D01*
X33752539Y15860500D01*
X33660852Y15835933D01*
X33660851Y15835933D01*
X33660849Y15835932D01*
X33660847Y15835931D01*
X33578651Y15788475D01*
X33511525Y15721349D01*
X33464069Y15639153D01*
X33464068Y15639151D01*
X33464067Y15639149D01*
X33464067Y15639148D01*
X33439500Y15547461D01*
X12957285Y15547461D01*
X12988472Y15578648D01*
X12988475Y15578653D01*
X12994630Y15589312D01*
X13023405Y15639153D01*
X13035933Y15660852D01*
X13060500Y15752539D01*
X13060500Y15847461D01*
X13035933Y15939148D01*
X12988472Y16021352D01*
X12921352Y16088472D01*
X12921349Y16088474D01*
X12921348Y16088475D01*
X12839152Y16135931D01*
X12839150Y16135932D01*
X12839149Y16135933D01*
X12839148Y16135933D01*
X12747461Y16160500D01*
X12652539Y16160500D01*
X12560852Y16135933D01*
X12560851Y16135933D01*
X12560849Y16135932D01*
X12560847Y16135931D01*
X12478651Y16088475D01*
X12411525Y16021349D01*
X12364069Y15939153D01*
X12364068Y15939151D01*
X12364067Y15939149D01*
X12364067Y15939148D01*
X12339500Y15847461D01*
X300500Y15847461D01*
X300500Y16747461D01*
X12339500Y16747461D01*
X12339500Y16652539D01*
X12364067Y16560852D01*
X12364068Y16560850D01*
X12364069Y16560848D01*
X12411525Y16478652D01*
X12411526Y16478651D01*
X12411528Y16478648D01*
X12478648Y16411528D01*
X12560852Y16364067D01*
X12652539Y16339500D01*
X12652541Y16339500D01*
X12747459Y16339500D01*
X12747461Y16339500D01*
X12839148Y16364067D01*
X12921352Y16411528D01*
X12988472Y16478648D01*
X13035933Y16560852D01*
X13060500Y16652539D01*
X13060500Y16747461D01*
X13035933Y16839148D01*
X12988472Y16921352D01*
X12921352Y16988472D01*
X12921349Y16988474D01*
X12921348Y16988475D01*
X12839152Y17035931D01*
X12839150Y17035932D01*
X12839149Y17035933D01*
X12839148Y17035933D01*
X12747461Y17060500D01*
X12652539Y17060500D01*
X12560852Y17035933D01*
X12560851Y17035933D01*
X12560849Y17035932D01*
X12560847Y17035931D01*
X12478651Y16988475D01*
X12411525Y16921349D01*
X12364069Y16839153D01*
X12364068Y16839151D01*
X12364067Y16839149D01*
X12364067Y16839148D01*
X12339500Y16747461D01*
X300500Y16747461D01*
X300500Y17647461D01*
X31239500Y17647461D01*
X31239500Y17552539D01*
X31264067Y17460852D01*
X31264068Y17460850D01*
X31264069Y17460848D01*
X31311525Y17378652D01*
X31311526Y17378651D01*
X31311528Y17378648D01*
X31378648Y17311528D01*
X31460852Y17264067D01*
X31552539Y17239500D01*
X31552541Y17239500D01*
X31647459Y17239500D01*
X31647461Y17239500D01*
X31739148Y17264067D01*
X31821352Y17311528D01*
X31888472Y17378648D01*
X31935933Y17460852D01*
X31960500Y17552539D01*
X31960500Y17647461D01*
X31935933Y17739148D01*
X31888472Y17821352D01*
X31821352Y17888472D01*
X31821349Y17888474D01*
X31821348Y17888475D01*
X31739152Y17935931D01*
X31739150Y17935932D01*
X31739149Y17935933D01*
X31739148Y17935933D01*
X31647461Y17960500D01*
X31552539Y17960500D01*
X31460852Y17935933D01*
X31460851Y17935933D01*
X31460849Y17935932D01*
X31460847Y17935931D01*
X31378651Y17888475D01*
X31311525Y17821349D01*
X31264069Y17739153D01*
X31264068Y17739151D01*
X31264067Y17739149D01*
X31264067Y17739148D01*
X31239500Y17647461D01*
X300500Y17647461D01*
X300500Y18695656D01*
X322174Y18747982D01*
X374500Y18769656D01*
X426826Y18747982D01*
X436029Y18736768D01*
X475491Y18677707D01*
X607096Y18546102D01*
X761850Y18442700D01*
X761849Y18442700D01*
X933788Y18371481D01*
X933799Y18371478D01*
X1116333Y18335170D01*
X1754950Y18335170D01*
X1754950Y18975200D01*
X2004950Y18975200D01*
X2004950Y18335170D01*
X2643567Y18335170D01*
X2826100Y18371478D01*
X2826111Y18371481D01*
X2998050Y18442700D01*
X3152803Y18546102D01*
X3152805Y18546103D01*
X3284407Y18677705D01*
X3284408Y18677707D01*
X3387810Y18832460D01*
X3459029Y19004399D01*
X3459032Y19004410D01*
X3488986Y19155000D01*
X2756633Y19155000D01*
X2760878Y19162352D01*
X2781650Y19239872D01*
X2781650Y19320128D01*
X2760878Y19397648D01*
X2756633Y19405000D01*
X3488986Y19405000D01*
X3488986Y19405001D01*
X4494434Y19405001D01*
X4494435Y19405000D01*
X5206468Y19405000D01*
X5202223Y19397648D01*
X5181451Y19320128D01*
X5181451Y19239872D01*
X5202223Y19162352D01*
X5206468Y19155000D01*
X4494434Y19155000D01*
X4524388Y19004410D01*
X4524391Y19004399D01*
X4595610Y18832460D01*
X4699012Y18677707D01*
X4830617Y18546102D01*
X4985371Y18442700D01*
X4985370Y18442700D01*
X5157309Y18371481D01*
X5157320Y18371478D01*
X5339854Y18335170D01*
X5754951Y18335170D01*
X5754951Y18975200D01*
X6004951Y18975200D01*
X6004951Y18335170D01*
X6420048Y18335170D01*
X6602581Y18371478D01*
X6602592Y18371481D01*
X6774531Y18442700D01*
X6929284Y18546102D01*
X6929286Y18546103D01*
X7060888Y18677705D01*
X7060889Y18677707D01*
X7164291Y18832460D01*
X7235510Y19004399D01*
X7235513Y19004410D01*
X7265467Y19155000D01*
X6553434Y19155000D01*
X6557679Y19162352D01*
X6578451Y19239872D01*
X6578451Y19247461D01*
X24839500Y19247461D01*
X24839500Y19152539D01*
X24864067Y19060852D01*
X24864068Y19060850D01*
X24864069Y19060848D01*
X24911525Y18978652D01*
X24911526Y18978651D01*
X24911528Y18978648D01*
X24978648Y18911528D01*
X24978650Y18911527D01*
X24978651Y18911526D01*
X25060818Y18864086D01*
X25095297Y18819152D01*
X25087904Y18763000D01*
X25060818Y18735914D01*
X24978651Y18688475D01*
X24911525Y18621349D01*
X24864069Y18539153D01*
X24864068Y18539151D01*
X24864067Y18539149D01*
X24864067Y18539148D01*
X24839500Y18447461D01*
X24839500Y18352539D01*
X24864067Y18260852D01*
X24864068Y18260850D01*
X24864069Y18260848D01*
X24911525Y18178652D01*
X24911526Y18178651D01*
X24911528Y18178648D01*
X24978648Y18111528D01*
X25060852Y18064067D01*
X25152539Y18039500D01*
X25152541Y18039500D01*
X25247459Y18039500D01*
X25247461Y18039500D01*
X25339148Y18064067D01*
X25421352Y18111528D01*
X25488472Y18178648D01*
X25525951Y18243563D01*
X29228937Y18243563D01*
X29228937Y18148641D01*
X29253504Y18056954D01*
X29253505Y18056952D01*
X29253506Y18056950D01*
X29300962Y17974754D01*
X29300963Y17974753D01*
X29300965Y17974750D01*
X29368085Y17907630D01*
X29450289Y17860169D01*
X29541976Y17835602D01*
X29541978Y17835602D01*
X29636896Y17835602D01*
X29636898Y17835602D01*
X29728585Y17860169D01*
X29810789Y17907630D01*
X29877909Y17974750D01*
X29919889Y18047461D01*
X44739500Y18047461D01*
X44739500Y17952539D01*
X44764067Y17860852D01*
X44764068Y17860850D01*
X44764069Y17860848D01*
X44811525Y17778652D01*
X44811526Y17778651D01*
X44811528Y17778648D01*
X44878648Y17711528D01*
X44960852Y17664067D01*
X45052539Y17639500D01*
X45052541Y17639500D01*
X45147459Y17639500D01*
X45147461Y17639500D01*
X45239148Y17664067D01*
X45321352Y17711528D01*
X45388472Y17778648D01*
X45435933Y17860852D01*
X45460500Y17952539D01*
X45460500Y18047461D01*
X45435933Y18139148D01*
X45388472Y18221352D01*
X45321352Y18288472D01*
X45321349Y18288474D01*
X45321348Y18288475D01*
X45239152Y18335931D01*
X45239150Y18335932D01*
X45239149Y18335933D01*
X45239148Y18335933D01*
X45147461Y18360500D01*
X45052539Y18360500D01*
X44960852Y18335933D01*
X44960851Y18335933D01*
X44960849Y18335932D01*
X44960847Y18335931D01*
X44878651Y18288475D01*
X44811525Y18221349D01*
X44764069Y18139153D01*
X44764068Y18139151D01*
X44764067Y18139149D01*
X44764067Y18139148D01*
X44739500Y18047461D01*
X29919889Y18047461D01*
X29925370Y18056954D01*
X29949937Y18148641D01*
X29949937Y18243563D01*
X29925370Y18335250D01*
X29877909Y18417454D01*
X29810789Y18484574D01*
X29810786Y18484576D01*
X29810785Y18484577D01*
X29728589Y18532033D01*
X29728587Y18532034D01*
X29728586Y18532035D01*
X29728585Y18532035D01*
X29636898Y18556602D01*
X29541976Y18556602D01*
X29450289Y18532035D01*
X29450288Y18532035D01*
X29450286Y18532034D01*
X29450284Y18532033D01*
X29368088Y18484577D01*
X29300962Y18417451D01*
X29253506Y18335255D01*
X29253505Y18335253D01*
X29253504Y18335251D01*
X29253504Y18335250D01*
X29228937Y18243563D01*
X25525951Y18243563D01*
X25535933Y18260852D01*
X25560500Y18352539D01*
X25560500Y18447461D01*
X25535933Y18539148D01*
X25488472Y18621352D01*
X25421352Y18688472D01*
X25421349Y18688474D01*
X25421348Y18688475D01*
X25339181Y18735914D01*
X25304702Y18780847D01*
X25312095Y18837000D01*
X25339181Y18864086D01*
X25351150Y18870997D01*
X25421352Y18911528D01*
X25488472Y18978648D01*
X25535914Y19060819D01*
X25580847Y19095298D01*
X25637000Y19087905D01*
X25664086Y19060819D01*
X25711525Y18978652D01*
X25711526Y18978651D01*
X25711528Y18978648D01*
X25778648Y18911528D01*
X25860852Y18864067D01*
X25952539Y18839500D01*
X25952541Y18839500D01*
X26047459Y18839500D01*
X26047461Y18839500D01*
X26139148Y18864067D01*
X26221352Y18911528D01*
X26288472Y18978648D01*
X26335933Y19060852D01*
X26360500Y19152539D01*
X26360500Y19247461D01*
X26335933Y19339148D01*
X26297913Y19405000D01*
X26288474Y19421349D01*
X26288473Y19421350D01*
X26288472Y19421352D01*
X26221352Y19488472D01*
X26221349Y19488474D01*
X26221348Y19488475D01*
X26139152Y19535931D01*
X26139150Y19535932D01*
X26139149Y19535933D01*
X26139148Y19535933D01*
X26047461Y19560500D01*
X25952539Y19560500D01*
X25860852Y19535933D01*
X25860851Y19535933D01*
X25860849Y19535932D01*
X25860847Y19535931D01*
X25778651Y19488475D01*
X25711525Y19421349D01*
X25664086Y19339182D01*
X25619152Y19304703D01*
X25563000Y19312096D01*
X25535914Y19339182D01*
X25488474Y19421349D01*
X25488473Y19421350D01*
X25488472Y19421352D01*
X25421352Y19488472D01*
X25421349Y19488474D01*
X25421348Y19488475D01*
X25339152Y19535931D01*
X25339150Y19535932D01*
X25339149Y19535933D01*
X25339148Y19535933D01*
X25247461Y19560500D01*
X25152539Y19560500D01*
X25060852Y19535933D01*
X25060851Y19535933D01*
X25060849Y19535932D01*
X25060847Y19535931D01*
X24978651Y19488475D01*
X24911525Y19421349D01*
X24864069Y19339153D01*
X24864068Y19339151D01*
X24864067Y19339149D01*
X24864067Y19339148D01*
X24839500Y19247461D01*
X6578451Y19247461D01*
X6578451Y19320128D01*
X6557679Y19397648D01*
X6553434Y19405000D01*
X7265467Y19405000D01*
X7265467Y19405001D01*
X7235513Y19555591D01*
X7235510Y19555602D01*
X7164291Y19727541D01*
X7060889Y19882294D01*
X6929284Y20013899D01*
X6774530Y20117301D01*
X6774531Y20117301D01*
X6602592Y20188520D01*
X6602581Y20188523D01*
X6420048Y20224830D01*
X6004951Y20224830D01*
X6004951Y19584800D01*
X5754951Y19584800D01*
X5754951Y20224830D01*
X5339854Y20224830D01*
X5157320Y20188523D01*
X5157309Y20188520D01*
X4985370Y20117301D01*
X4830617Y20013899D01*
X4830616Y20013897D01*
X4699014Y19882295D01*
X4699012Y19882294D01*
X4595610Y19727541D01*
X4524391Y19555602D01*
X4524388Y19555591D01*
X4494434Y19405001D01*
X3488986Y19405001D01*
X3459032Y19555591D01*
X3459029Y19555602D01*
X3387810Y19727541D01*
X3284408Y19882294D01*
X3152803Y20013899D01*
X2998049Y20117301D01*
X2998050Y20117301D01*
X2826111Y20188520D01*
X2826100Y20188523D01*
X2643567Y20224830D01*
X2004950Y20224830D01*
X2004950Y19584800D01*
X1754950Y19584800D01*
X1754950Y20224830D01*
X1116333Y20224830D01*
X933799Y20188523D01*
X933788Y20188520D01*
X761849Y20117301D01*
X607096Y20013899D01*
X607095Y20013897D01*
X475493Y19882295D01*
X475491Y19882294D01*
X436029Y19823233D01*
X388937Y19791767D01*
X333388Y19802816D01*
X301922Y19849908D01*
X300500Y19864345D01*
X300500Y20934440D01*
X17628200Y20934440D01*
X17628200Y20785561D01*
X17657243Y20639548D01*
X17657245Y20639541D01*
X17714218Y20501995D01*
X17714219Y20501994D01*
X17796932Y20378206D01*
X17902206Y20272932D01*
X18025994Y20190219D01*
X18163541Y20133245D01*
X18309560Y20104200D01*
X18309561Y20104200D01*
X18458439Y20104200D01*
X18458440Y20104200D01*
X18604459Y20133245D01*
X18742006Y20190219D01*
X18865794Y20272932D01*
X18971068Y20378206D01*
X19053781Y20501994D01*
X19110755Y20639541D01*
X19139800Y20785560D01*
X19139800Y20934440D01*
X19660200Y20934440D01*
X19660200Y20785561D01*
X19689243Y20639548D01*
X19689245Y20639541D01*
X19746218Y20501995D01*
X19746219Y20501994D01*
X19828932Y20378206D01*
X19934206Y20272932D01*
X20057994Y20190219D01*
X20195541Y20133245D01*
X20341560Y20104200D01*
X20341561Y20104200D01*
X20490439Y20104200D01*
X20490440Y20104200D01*
X20636459Y20133245D01*
X20774006Y20190219D01*
X20897794Y20272932D01*
X21003068Y20378206D01*
X21085781Y20501994D01*
X21142755Y20639541D01*
X21171800Y20785560D01*
X21171800Y20934440D01*
X21142755Y21080459D01*
X21085781Y21218006D01*
X21003068Y21341794D01*
X20897794Y21447068D01*
X20897790Y21447071D01*
X20774005Y21529782D01*
X20636459Y21586755D01*
X20636452Y21586757D01*
X20526450Y21608638D01*
X20490440Y21615800D01*
X20341560Y21615800D01*
X20312674Y21610055D01*
X20195547Y21586757D01*
X20195540Y21586755D01*
X20057994Y21529782D01*
X19934209Y21447071D01*
X19828929Y21341791D01*
X19746218Y21218006D01*
X19689245Y21080460D01*
X19689243Y21080453D01*
X19660200Y20934440D01*
X19139800Y20934440D01*
X19110755Y21080459D01*
X19053781Y21218006D01*
X18971068Y21341794D01*
X18865794Y21447068D01*
X18865790Y21447071D01*
X18742005Y21529782D01*
X18604459Y21586755D01*
X18604452Y21586757D01*
X18494450Y21608638D01*
X18458440Y21615800D01*
X18309560Y21615800D01*
X18280674Y21610055D01*
X18163547Y21586757D01*
X18163540Y21586755D01*
X18025994Y21529782D01*
X17902209Y21447071D01*
X17796929Y21341791D01*
X17714218Y21218006D01*
X17657245Y21080460D01*
X17657243Y21080453D01*
X17628200Y20934440D01*
X300500Y20934440D01*
X300500Y22878958D01*
X15412050Y22878958D01*
X15412050Y22651043D01*
X15447703Y22425941D01*
X15447706Y22425928D01*
X15518130Y22209183D01*
X15518132Y22209179D01*
X15614400Y22020243D01*
X15621602Y22006109D01*
X15755566Y21821724D01*
X15916724Y21660566D01*
X16101109Y21526602D01*
X16257197Y21447071D01*
X16304178Y21423133D01*
X16304182Y21423131D01*
X16520927Y21352707D01*
X16520933Y21352706D01*
X16520938Y21352704D01*
X16589820Y21341794D01*
X16746042Y21317050D01*
X16746044Y21317050D01*
X16973958Y21317050D01*
X17063998Y21331312D01*
X17199062Y21352704D01*
X17199069Y21352707D01*
X17199072Y21352707D01*
X17415817Y21423131D01*
X17415817Y21423132D01*
X17415820Y21423132D01*
X17618891Y21526602D01*
X17803276Y21660566D01*
X17964434Y21821724D01*
X18098398Y22006109D01*
X18201868Y22209180D01*
X18252194Y22364070D01*
X18272293Y22425928D01*
X18272293Y22425931D01*
X18272296Y22425938D01*
X18307950Y22651044D01*
X18307950Y22878956D01*
X18307950Y22878958D01*
X20492050Y22878958D01*
X20492050Y22651043D01*
X20527703Y22425941D01*
X20527706Y22425928D01*
X20598130Y22209183D01*
X20598132Y22209179D01*
X20694400Y22020243D01*
X20701602Y22006109D01*
X20835566Y21821724D01*
X20996724Y21660566D01*
X21181109Y21526602D01*
X21337197Y21447071D01*
X21384178Y21423133D01*
X21384182Y21423131D01*
X21600927Y21352707D01*
X21600933Y21352706D01*
X21600938Y21352704D01*
X21669820Y21341794D01*
X21826042Y21317050D01*
X21826044Y21317050D01*
X22053958Y21317050D01*
X22143998Y21331312D01*
X22279062Y21352704D01*
X22279069Y21352707D01*
X22279072Y21352707D01*
X22495817Y21423131D01*
X22495817Y21423132D01*
X22495820Y21423132D01*
X22698891Y21526602D01*
X22883276Y21660566D01*
X23044434Y21821724D01*
X23178398Y22006109D01*
X23281868Y22209180D01*
X23332194Y22364070D01*
X23352293Y22425928D01*
X23352293Y22425931D01*
X23352296Y22425938D01*
X23387950Y22651044D01*
X23387950Y22878956D01*
X23381235Y22921349D01*
X23359774Y23056847D01*
X23352296Y23104062D01*
X23352294Y23104067D01*
X23352293Y23104073D01*
X23281869Y23320818D01*
X23281867Y23320822D01*
X23254261Y23375001D01*
X23178398Y23523891D01*
X23044434Y23708276D01*
X22883276Y23869434D01*
X22883273Y23869437D01*
X22883271Y23869438D01*
X22698893Y24003397D01*
X22698887Y24003400D01*
X22495821Y24106868D01*
X22495817Y24106870D01*
X22331453Y24160274D01*
X22279072Y24177294D01*
X22279059Y24177297D01*
X22135720Y24200000D01*
X33350000Y24200000D01*
X33350000Y23725000D01*
X34527321Y23725000D01*
X34568784Y23712293D01*
X35400000Y23150000D01*
X35400001Y23150000D01*
X35682250Y23150000D01*
X35734576Y23128326D01*
X35756250Y23076000D01*
X35734576Y23023674D01*
X35719250Y23011914D01*
X35678651Y22988475D01*
X35611525Y22921349D01*
X35564069Y22839153D01*
X35564068Y22839151D01*
X35564067Y22839149D01*
X35564067Y22839148D01*
X35539500Y22747461D01*
X35539500Y22652539D01*
X35564067Y22560852D01*
X35564068Y22560850D01*
X35564069Y22560848D01*
X35611525Y22478652D01*
X35611526Y22478651D01*
X35611528Y22478648D01*
X35678648Y22411528D01*
X35760852Y22364067D01*
X35852539Y22339500D01*
X35852541Y22339500D01*
X35947459Y22339500D01*
X35947461Y22339500D01*
X36039148Y22364067D01*
X36121352Y22411528D01*
X36188472Y22478648D01*
X36235933Y22560852D01*
X36260500Y22652539D01*
X36260500Y22747461D01*
X36235933Y22839148D01*
X36212950Y22878956D01*
X36188474Y22921349D01*
X36188473Y22921350D01*
X36188472Y22921352D01*
X36121352Y22988472D01*
X36121349Y22988474D01*
X36121348Y22988475D01*
X36080750Y23011914D01*
X36046271Y23056847D01*
X36053664Y23113000D01*
X36098597Y23147479D01*
X36117750Y23150000D01*
X41300000Y23150000D01*
X41499998Y23374998D01*
X41500000Y23375000D01*
X41500000Y24425000D01*
X41500000Y24425001D01*
X41900000Y24425001D01*
X41900000Y23375001D01*
X41900001Y23374998D01*
X42081308Y23171029D01*
X42100000Y23121866D01*
X42100000Y22800000D01*
X44328125Y22800000D01*
X44502888Y22999729D01*
X44553657Y23024836D01*
X44558579Y23025000D01*
X45375000Y23025000D01*
X45375000Y25000000D01*
X42433929Y25000000D01*
X42433928Y25000000D01*
X41900000Y24425001D01*
X41500000Y24425001D01*
X40988889Y25000000D01*
X36825000Y25000000D01*
X36401739Y24576740D01*
X36398146Y24573378D01*
X36392357Y24568312D01*
X36343624Y24550000D01*
X34650002Y24550000D01*
X34357856Y24257857D01*
X34321674Y24221674D01*
X34269348Y24200000D01*
X33350000Y24200000D01*
X22135720Y24200000D01*
X22053958Y24212950D01*
X22053956Y24212950D01*
X21826044Y24212950D01*
X21826042Y24212950D01*
X21600940Y24177297D01*
X21600927Y24177294D01*
X21384182Y24106870D01*
X21384178Y24106868D01*
X21181112Y24003400D01*
X21181106Y24003397D01*
X20996728Y23869438D01*
X20835562Y23708272D01*
X20701603Y23523894D01*
X20701600Y23523888D01*
X20598132Y23320822D01*
X20598130Y23320818D01*
X20527706Y23104073D01*
X20527703Y23104060D01*
X20492050Y22878958D01*
X18307950Y22878958D01*
X18301235Y22921349D01*
X18279774Y23056847D01*
X18272296Y23104062D01*
X18272294Y23104067D01*
X18272293Y23104073D01*
X18201869Y23320818D01*
X18201867Y23320822D01*
X18174261Y23375001D01*
X18098398Y23523891D01*
X17964434Y23708276D01*
X17803276Y23869434D01*
X17803273Y23869437D01*
X17803271Y23869438D01*
X17618893Y24003397D01*
X17618887Y24003400D01*
X17415821Y24106868D01*
X17415817Y24106870D01*
X17199072Y24177294D01*
X17199059Y24177297D01*
X16973958Y24212950D01*
X16973956Y24212950D01*
X16746044Y24212950D01*
X16746042Y24212950D01*
X16520940Y24177297D01*
X16520927Y24177294D01*
X16304182Y24106870D01*
X16304178Y24106868D01*
X16101112Y24003400D01*
X16101106Y24003397D01*
X15916728Y23869438D01*
X15755562Y23708272D01*
X15621603Y23523894D01*
X15621600Y23523888D01*
X15518132Y23320822D01*
X15518130Y23320818D01*
X15447706Y23104073D01*
X15447703Y23104060D01*
X15412050Y22878958D01*
X300500Y22878958D01*
X300500Y26053958D01*
X15412050Y26053958D01*
X15412050Y25826043D01*
X15447703Y25600941D01*
X15447706Y25600928D01*
X15518130Y25384183D01*
X15518132Y25384179D01*
X15621600Y25181113D01*
X15621603Y25181107D01*
X15755562Y24996729D01*
X15755566Y24996724D01*
X15916724Y24835566D01*
X16101109Y24701602D01*
X16297113Y24601733D01*
X16304178Y24598133D01*
X16304182Y24598131D01*
X16520927Y24527707D01*
X16520933Y24527706D01*
X16520938Y24527704D01*
X16623067Y24511528D01*
X16746042Y24492050D01*
X16746044Y24492050D01*
X16973958Y24492050D01*
X17063998Y24506312D01*
X17199062Y24527704D01*
X17199069Y24527707D01*
X17199072Y24527707D01*
X17415817Y24598131D01*
X17415817Y24598132D01*
X17415820Y24598132D01*
X17618891Y24701602D01*
X17803276Y24835566D01*
X17964434Y24996724D01*
X18098398Y25181109D01*
X18201868Y25384180D01*
X18225920Y25458206D01*
X18272293Y25600928D01*
X18272293Y25600931D01*
X18272296Y25600938D01*
X18307950Y25826044D01*
X18307950Y26014440D01*
X18644200Y26014440D01*
X18644200Y25865560D01*
X18646790Y25852539D01*
X18673243Y25719548D01*
X18673245Y25719541D01*
X18730218Y25581995D01*
X18812929Y25458210D01*
X18812932Y25458206D01*
X18918206Y25352932D01*
X19041994Y25270219D01*
X19179541Y25213245D01*
X19325560Y25184200D01*
X19325561Y25184200D01*
X19474439Y25184200D01*
X19474440Y25184200D01*
X19620459Y25213245D01*
X19758006Y25270219D01*
X19881794Y25352932D01*
X19987068Y25458206D01*
X20069781Y25581994D01*
X20126755Y25719541D01*
X20155800Y25865560D01*
X20155800Y26014440D01*
X20147939Y26053958D01*
X20492050Y26053958D01*
X20492050Y25826043D01*
X20527703Y25600941D01*
X20527706Y25600928D01*
X20598130Y25384183D01*
X20598132Y25384179D01*
X20701600Y25181113D01*
X20701603Y25181107D01*
X20835562Y24996729D01*
X20835566Y24996724D01*
X20996724Y24835566D01*
X21181109Y24701602D01*
X21377113Y24601733D01*
X21384178Y24598133D01*
X21384182Y24598131D01*
X21600927Y24527707D01*
X21600933Y24527706D01*
X21600938Y24527704D01*
X21703067Y24511528D01*
X21826042Y24492050D01*
X21826044Y24492050D01*
X22053958Y24492050D01*
X22143998Y24506312D01*
X22279062Y24527704D01*
X22279069Y24527707D01*
X22279072Y24527707D01*
X22495817Y24598131D01*
X22495817Y24598132D01*
X22495820Y24598132D01*
X22698891Y24701602D01*
X22883276Y24835566D01*
X22895171Y24847461D01*
X24839500Y24847461D01*
X24839500Y24752539D01*
X24853149Y24701601D01*
X24864068Y24660850D01*
X24864069Y24660848D01*
X24911525Y24578652D01*
X24911526Y24578651D01*
X24911528Y24578648D01*
X24978648Y24511528D01*
X24978650Y24511527D01*
X24978651Y24511526D01*
X25036431Y24478167D01*
X25060852Y24464067D01*
X25152539Y24439500D01*
X25152541Y24439500D01*
X25247459Y24439500D01*
X25247461Y24439500D01*
X25339148Y24464067D01*
X25421352Y24511528D01*
X25488472Y24578648D01*
X25535933Y24660852D01*
X25560500Y24752539D01*
X25560500Y24847461D01*
X25535933Y24939148D01*
X25488472Y25021352D01*
X25421352Y25088472D01*
X25421349Y25088474D01*
X25421348Y25088475D01*
X25339152Y25135931D01*
X25339150Y25135932D01*
X25339149Y25135933D01*
X25339148Y25135933D01*
X25247461Y25160500D01*
X25152539Y25160500D01*
X25060852Y25135933D01*
X25060851Y25135933D01*
X25060849Y25135932D01*
X25060847Y25135931D01*
X24978651Y25088475D01*
X24911525Y25021349D01*
X24864069Y24939153D01*
X24864068Y24939151D01*
X24864067Y24939149D01*
X24864067Y24939148D01*
X24839500Y24847461D01*
X22895171Y24847461D01*
X23044434Y24996724D01*
X23178398Y25181109D01*
X23281868Y25384180D01*
X23305920Y25458206D01*
X23352293Y25600928D01*
X23352293Y25600931D01*
X23352296Y25600938D01*
X23387950Y25826044D01*
X23387950Y25947461D01*
X35739500Y25947461D01*
X35739500Y25852539D01*
X35764067Y25760852D01*
X35764068Y25760850D01*
X35764069Y25760848D01*
X35811525Y25678652D01*
X35811526Y25678651D01*
X35811528Y25678648D01*
X35878648Y25611528D01*
X35878650Y25611527D01*
X35878651Y25611526D01*
X35929800Y25581995D01*
X35960852Y25564067D01*
X36052539Y25539500D01*
X36052541Y25539500D01*
X36147459Y25539500D01*
X36147461Y25539500D01*
X36239148Y25564067D01*
X36321352Y25611528D01*
X36388472Y25678648D01*
X36435933Y25760852D01*
X36460500Y25852539D01*
X36460500Y25947461D01*
X36435933Y26039148D01*
X36388472Y26121352D01*
X36321352Y26188472D01*
X36321349Y26188474D01*
X36321348Y26188475D01*
X36239152Y26235931D01*
X36239150Y26235932D01*
X36239149Y26235933D01*
X36239148Y26235933D01*
X36147461Y26260500D01*
X36052539Y26260500D01*
X35960852Y26235933D01*
X35960851Y26235933D01*
X35960849Y26235932D01*
X35960847Y26235931D01*
X35878651Y26188475D01*
X35811525Y26121349D01*
X35764069Y26039153D01*
X35764068Y26039151D01*
X35764067Y26039149D01*
X35764067Y26039148D01*
X35739500Y25947461D01*
X23387950Y25947461D01*
X23387950Y26053956D01*
X23352296Y26279062D01*
X23352294Y26279067D01*
X23352293Y26279073D01*
X23281869Y26495818D01*
X23281867Y26495822D01*
X23194771Y26666757D01*
X23178398Y26698891D01*
X23044434Y26883276D01*
X22883276Y27044434D01*
X22883273Y27044437D01*
X22883271Y27044438D01*
X22698893Y27178397D01*
X22698887Y27178400D01*
X22495821Y27281868D01*
X22495817Y27281870D01*
X22279072Y27352294D01*
X22279059Y27352297D01*
X22053958Y27387950D01*
X22053956Y27387950D01*
X21826044Y27387950D01*
X21826042Y27387950D01*
X21600940Y27352297D01*
X21600927Y27352294D01*
X21384182Y27281870D01*
X21384178Y27281868D01*
X21181112Y27178400D01*
X21181106Y27178397D01*
X20996728Y27044438D01*
X20835562Y26883272D01*
X20701603Y26698894D01*
X20701600Y26698888D01*
X20598132Y26495822D01*
X20598130Y26495818D01*
X20527706Y26279073D01*
X20527703Y26279060D01*
X20492050Y26053958D01*
X20147939Y26053958D01*
X20126756Y26160454D01*
X20126755Y26160455D01*
X20126755Y26160459D01*
X20069781Y26298006D01*
X19987068Y26421794D01*
X19881794Y26527068D01*
X19758006Y26609781D01*
X19758007Y26609781D01*
X19758005Y26609782D01*
X19620459Y26666755D01*
X19620452Y26666757D01*
X19510450Y26688638D01*
X19474440Y26695800D01*
X19325560Y26695800D01*
X19296674Y26690055D01*
X19179547Y26666757D01*
X19179540Y26666755D01*
X19041994Y26609782D01*
X18918209Y26527071D01*
X18812929Y26421791D01*
X18730218Y26298006D01*
X18673245Y26160460D01*
X18673243Y26160453D01*
X18652060Y26053956D01*
X18644200Y26014440D01*
X18307950Y26014440D01*
X18307950Y26053956D01*
X18272296Y26279062D01*
X18272294Y26279067D01*
X18272293Y26279073D01*
X18201869Y26495818D01*
X18201867Y26495822D01*
X18114771Y26666757D01*
X18098398Y26698891D01*
X17964434Y26883276D01*
X17803276Y27044434D01*
X17803273Y27044437D01*
X17803271Y27044438D01*
X17618893Y27178397D01*
X17618887Y27178400D01*
X17415821Y27281868D01*
X17415817Y27281870D01*
X17199072Y27352294D01*
X17199059Y27352297D01*
X16973958Y27387950D01*
X16973956Y27387950D01*
X16746044Y27387950D01*
X16746042Y27387950D01*
X16520940Y27352297D01*
X16520927Y27352294D01*
X16304182Y27281870D01*
X16304178Y27281868D01*
X16101112Y27178400D01*
X16101106Y27178397D01*
X15916728Y27044438D01*
X15755562Y26883272D01*
X15621603Y26698894D01*
X15621600Y26698888D01*
X15518132Y26495822D01*
X15518130Y26495818D01*
X15447706Y26279073D01*
X15447703Y26279060D01*
X15412050Y26053958D01*
X300500Y26053958D01*
X300500Y27335656D01*
X322174Y27387982D01*
X374500Y27409656D01*
X426826Y27387982D01*
X436029Y27376768D01*
X475491Y27317707D01*
X607096Y27186102D01*
X761850Y27082700D01*
X761849Y27082700D01*
X933788Y27011481D01*
X933799Y27011478D01*
X1116333Y26975170D01*
X1754950Y26975170D01*
X1754950Y27615200D01*
X2004950Y27615200D01*
X2004950Y26975170D01*
X2643567Y26975170D01*
X2826100Y27011478D01*
X2826111Y27011481D01*
X2998050Y27082700D01*
X3152803Y27186102D01*
X3152805Y27186103D01*
X3284407Y27317705D01*
X3284408Y27317707D01*
X3387810Y27472460D01*
X3459029Y27644399D01*
X3459032Y27644410D01*
X3488986Y27795000D01*
X2756633Y27795000D01*
X2760878Y27802352D01*
X2781650Y27879872D01*
X2781650Y27960128D01*
X2760878Y28037648D01*
X2756633Y28045000D01*
X3488986Y28045000D01*
X3488986Y28045001D01*
X4494434Y28045001D01*
X4494435Y28045000D01*
X5206468Y28045000D01*
X5202223Y28037648D01*
X5181451Y27960128D01*
X5181451Y27879872D01*
X5202223Y27802352D01*
X5206468Y27795000D01*
X4494434Y27795000D01*
X4524388Y27644410D01*
X4524391Y27644399D01*
X4595610Y27472460D01*
X4699012Y27317707D01*
X4830617Y27186102D01*
X4985371Y27082700D01*
X4985370Y27082700D01*
X5157309Y27011481D01*
X5157320Y27011478D01*
X5339854Y26975170D01*
X5754951Y26975170D01*
X5754951Y27615200D01*
X6004951Y27615200D01*
X6004951Y26975170D01*
X6420048Y26975170D01*
X6602581Y27011478D01*
X6602592Y27011481D01*
X6774531Y27082700D01*
X6929284Y27186102D01*
X6929286Y27186103D01*
X7060888Y27317705D01*
X7060889Y27317707D01*
X7164291Y27472460D01*
X7235510Y27644399D01*
X7235513Y27644410D01*
X7265467Y27795000D01*
X6553434Y27795000D01*
X6557679Y27802352D01*
X6578451Y27879872D01*
X6578451Y27960128D01*
X6557679Y28037648D01*
X6553434Y28045000D01*
X7265467Y28045000D01*
X7265467Y28045001D01*
X7235513Y28195591D01*
X7235510Y28195602D01*
X7182329Y28323993D01*
X7172608Y28347461D01*
X17219500Y28347461D01*
X17219500Y28252539D01*
X17244067Y28160852D01*
X17244068Y28160850D01*
X17244069Y28160848D01*
X17291525Y28078652D01*
X17291526Y28078651D01*
X17291528Y28078648D01*
X17358648Y28011528D01*
X17440852Y27964067D01*
X17532539Y27939500D01*
X17532541Y27939500D01*
X17627459Y27939500D01*
X17627461Y27939500D01*
X17719148Y27964067D01*
X17801352Y28011528D01*
X17868472Y28078648D01*
X17915933Y28160852D01*
X17940500Y28252539D01*
X17940500Y28347461D01*
X17915933Y28439148D01*
X17901833Y28463569D01*
X17868474Y28521349D01*
X17868473Y28521350D01*
X17868472Y28521352D01*
X17801352Y28588472D01*
X17801349Y28588474D01*
X17801348Y28588475D01*
X17719152Y28635931D01*
X17719150Y28635932D01*
X17719149Y28635933D01*
X17719148Y28635933D01*
X17627461Y28660500D01*
X17532539Y28660500D01*
X17440852Y28635933D01*
X17440851Y28635933D01*
X17440849Y28635932D01*
X17440847Y28635931D01*
X17358651Y28588475D01*
X17291525Y28521349D01*
X17244069Y28439153D01*
X17244068Y28439151D01*
X17244067Y28439149D01*
X17244067Y28439148D01*
X17219500Y28347461D01*
X7172608Y28347461D01*
X7164291Y28367541D01*
X7060889Y28522294D01*
X6929284Y28653899D01*
X6774530Y28757301D01*
X6774531Y28757301D01*
X6602592Y28828520D01*
X6602581Y28828523D01*
X6420048Y28864830D01*
X6004951Y28864830D01*
X6004951Y28224800D01*
X5754951Y28224800D01*
X5754951Y28864830D01*
X5339854Y28864830D01*
X5157320Y28828523D01*
X5157309Y28828520D01*
X4985370Y28757301D01*
X4830617Y28653899D01*
X4830616Y28653897D01*
X4699014Y28522295D01*
X4699012Y28522294D01*
X4595610Y28367541D01*
X4524391Y28195602D01*
X4524388Y28195591D01*
X4494434Y28045001D01*
X3488986Y28045001D01*
X3459032Y28195591D01*
X3459029Y28195602D01*
X3387810Y28367541D01*
X3284408Y28522294D01*
X3152803Y28653899D01*
X2998049Y28757301D01*
X2998050Y28757301D01*
X2826111Y28828520D01*
X2826100Y28828523D01*
X2643567Y28864830D01*
X2004950Y28864830D01*
X2004950Y28224800D01*
X1754950Y28224800D01*
X1754950Y28864830D01*
X1116333Y28864830D01*
X933799Y28828523D01*
X933788Y28828520D01*
X761849Y28757301D01*
X607096Y28653899D01*
X607095Y28653897D01*
X475493Y28522295D01*
X475491Y28522294D01*
X436029Y28463233D01*
X388937Y28431767D01*
X333388Y28442816D01*
X301922Y28489908D01*
X300500Y28504345D01*
X300500Y30747461D01*
X26659500Y30747461D01*
X26659500Y30652539D01*
X26684067Y30560852D01*
X26684068Y30560850D01*
X26684069Y30560848D01*
X26731525Y30478652D01*
X26731526Y30478651D01*
X26731528Y30478648D01*
X26798648Y30411528D01*
X26880852Y30364067D01*
X26972539Y30339500D01*
X26972541Y30339500D01*
X27067459Y30339500D01*
X27067461Y30339500D01*
X27159148Y30364067D01*
X27241352Y30411528D01*
X27308472Y30478648D01*
X27308475Y30478655D01*
X27311296Y30482328D01*
X27360348Y30510642D01*
X27415054Y30495978D01*
X27428704Y30482328D01*
X27431526Y30478651D01*
X27431528Y30478648D01*
X27498648Y30411528D01*
X27580852Y30364067D01*
X27672539Y30339500D01*
X27672541Y30339500D01*
X27767459Y30339500D01*
X27767461Y30339500D01*
X27859148Y30364067D01*
X27941352Y30411528D01*
X28008472Y30478648D01*
X28055933Y30560852D01*
X28080500Y30652539D01*
X28080500Y30747461D01*
X28055933Y30839148D01*
X28018475Y30904026D01*
X28008474Y30921349D01*
X28008473Y30921350D01*
X28008472Y30921352D01*
X27941352Y30988472D01*
X27941349Y30988474D01*
X27941348Y30988475D01*
X27859152Y31035931D01*
X27859150Y31035932D01*
X27859149Y31035933D01*
X27859148Y31035933D01*
X27767461Y31060500D01*
X27672539Y31060500D01*
X27580852Y31035933D01*
X27580851Y31035933D01*
X27580849Y31035932D01*
X27580847Y31035931D01*
X27498651Y30988475D01*
X27431524Y30921348D01*
X27428701Y30917669D01*
X27379647Y30889359D01*
X27324942Y30904026D01*
X27311299Y30917669D01*
X27308475Y30921348D01*
X27308473Y30921350D01*
X27308472Y30921352D01*
X27241352Y30988472D01*
X27241349Y30988474D01*
X27241348Y30988475D01*
X27159152Y31035931D01*
X27159150Y31035932D01*
X27159149Y31035933D01*
X27159148Y31035933D01*
X27067461Y31060500D01*
X26972539Y31060500D01*
X26880852Y31035933D01*
X26880851Y31035933D01*
X26880849Y31035932D01*
X26880847Y31035931D01*
X26798651Y30988475D01*
X26731525Y30921349D01*
X26684069Y30839153D01*
X26684068Y30839151D01*
X26684067Y30839149D01*
X26684067Y30839148D01*
X26659500Y30747461D01*
X300500Y30747461D01*
X300500Y31996362D01*
X300856Y32003615D01*
X300856Y32003616D01*
X313227Y32129220D01*
X316054Y32143434D01*
X351632Y32260720D01*
X357183Y32274118D01*
X414950Y32382192D01*
X423009Y32394254D01*
X500755Y32488987D01*
X511013Y32499245D01*
X605746Y32576991D01*
X617808Y32585050D01*
X725885Y32642819D01*
X739280Y32648368D01*
X856566Y32683946D01*
X870780Y32686773D01*
X996386Y32699144D01*
X1003639Y32699500D01*
X1047594Y32699500D01*
X46952406Y32699500D01*
X46996361Y32699500D01*
X47003614Y32699144D01*
G37*
%TD.AperFunction*%
%TD*%
M02*
