%TF.GenerationSoftware,KiCad,Pcbnew,10.0.6*%
%TF.CreationDate,2026-09-29T17:19:22+03:00*%
%TF.ProjectId,stm32-bt-board,73746d33-322d-4627-942d-626f6172642e,rev?*%
%TF.SameCoordinates,PX7641700PY7270e00*%
%TF.FileFunction,AssemblyDrawing,Top*%
%FSLAX46Y46*%
G04 Gerber Fmt 4.6, Leading zero omitted, Abs format (unit mm)*
G04 Created by KiCad (PCBNEW 10.0.6) date 2026-09-29 17:19:22*
%MOMM*%
%LPD*%
G01*
G04 APERTURE LIST*
%ADD10C,0.150000*%
%ADD11C,0.040000*%
%ADD12C,0.060000*%
%ADD13C,0.110000*%
%ADD14C,0.080000*%
%ADD15C,0.025400*%
%ADD16C,0.100000*%
%ADD17C,0.152400*%
%ADD18C,0.508000*%
G04 APERTURE END LIST*
D10*
X5909770Y29340002D02*
X6147865Y29340002D01*
X6052627Y29101907D02*
X6147865Y29340002D01*
X6147865Y29340002D02*
X6052627Y29578097D01*
X6338341Y29197145D02*
X6147865Y29340002D01*
X6147865Y29340002D02*
X6338341Y29482859D01*
X7000131Y29340001D02*
X6762036Y29340001D01*
X6857274Y29578096D02*
X6762036Y29340001D01*
X6762036Y29340001D02*
X6857274Y29101906D01*
X6571560Y29482858D02*
X6762036Y29340001D01*
X6762036Y29340001D02*
X6571560Y29197144D01*
X7000131Y23933334D02*
X6285846Y23933334D01*
X6285846Y23933334D02*
X6142989Y23980953D01*
X6142989Y23980953D02*
X6047751Y24076191D01*
X6047751Y24076191D02*
X6000131Y24219048D01*
X6000131Y24219048D02*
X6000131Y24314286D01*
X6904893Y23504762D02*
X6952512Y23457143D01*
X6952512Y23457143D02*
X7000131Y23361905D01*
X7000131Y23361905D02*
X7000131Y23123810D01*
X7000131Y23123810D02*
X6952512Y23028572D01*
X6952512Y23028572D02*
X6904893Y22980953D01*
X6904893Y22980953D02*
X6809655Y22933334D01*
X6809655Y22933334D02*
X6714417Y22933334D01*
X6714417Y22933334D02*
X6571560Y22980953D01*
X6571560Y22980953D02*
X6000131Y23552381D01*
X6000131Y23552381D02*
X6000131Y22933334D01*
X31454819Y12861906D02*
X30454819Y12861906D01*
X30454819Y12861906D02*
X30454819Y13100001D01*
X30454819Y13100001D02*
X30502438Y13242858D01*
X30502438Y13242858D02*
X30597676Y13338096D01*
X30597676Y13338096D02*
X30692914Y13385715D01*
X30692914Y13385715D02*
X30883390Y13433334D01*
X30883390Y13433334D02*
X31026247Y13433334D01*
X31026247Y13433334D02*
X31216723Y13385715D01*
X31216723Y13385715D02*
X31311961Y13338096D01*
X31311961Y13338096D02*
X31407200Y13242858D01*
X31407200Y13242858D02*
X31454819Y13100001D01*
X31454819Y13100001D02*
X31454819Y12861906D01*
X30550057Y13814287D02*
X30502438Y13861906D01*
X30502438Y13861906D02*
X30454819Y13957144D01*
X30454819Y13957144D02*
X30454819Y14195239D01*
X30454819Y14195239D02*
X30502438Y14290477D01*
X30502438Y14290477D02*
X30550057Y14338096D01*
X30550057Y14338096D02*
X30645295Y14385715D01*
X30645295Y14385715D02*
X30740533Y14385715D01*
X30740533Y14385715D02*
X30883390Y14338096D01*
X30883390Y14338096D02*
X31454819Y13766668D01*
X31454819Y13766668D02*
X31454819Y14385715D01*
D11*
X37432857Y19881800D02*
X37346190Y20005609D01*
X37284285Y19881800D02*
X37284285Y20141800D01*
X37284285Y20141800D02*
X37383333Y20141800D01*
X37383333Y20141800D02*
X37408095Y20129419D01*
X37408095Y20129419D02*
X37420476Y20117038D01*
X37420476Y20117038D02*
X37432857Y20092276D01*
X37432857Y20092276D02*
X37432857Y20055133D01*
X37432857Y20055133D02*
X37420476Y20030371D01*
X37420476Y20030371D02*
X37408095Y20017990D01*
X37408095Y20017990D02*
X37383333Y20005609D01*
X37383333Y20005609D02*
X37284285Y20005609D01*
X37680476Y19881800D02*
X37531904Y19881800D01*
X37606190Y19881800D02*
X37606190Y20141800D01*
X37606190Y20141800D02*
X37581428Y20104657D01*
X37581428Y20104657D02*
X37556666Y20079895D01*
X37556666Y20079895D02*
X37531904Y20067514D01*
X37903333Y20141800D02*
X37853809Y20141800D01*
X37853809Y20141800D02*
X37829047Y20129419D01*
X37829047Y20129419D02*
X37816666Y20117038D01*
X37816666Y20117038D02*
X37791904Y20079895D01*
X37791904Y20079895D02*
X37779523Y20030371D01*
X37779523Y20030371D02*
X37779523Y19931323D01*
X37779523Y19931323D02*
X37791904Y19906561D01*
X37791904Y19906561D02*
X37804285Y19894180D01*
X37804285Y19894180D02*
X37829047Y19881800D01*
X37829047Y19881800D02*
X37878571Y19881800D01*
X37878571Y19881800D02*
X37903333Y19894180D01*
X37903333Y19894180D02*
X37915714Y19906561D01*
X37915714Y19906561D02*
X37928095Y19931323D01*
X37928095Y19931323D02*
X37928095Y19993228D01*
X37928095Y19993228D02*
X37915714Y20017990D01*
X37915714Y20017990D02*
X37903333Y20030371D01*
X37903333Y20030371D02*
X37878571Y20042752D01*
X37878571Y20042752D02*
X37829047Y20042752D01*
X37829047Y20042752D02*
X37804285Y20030371D01*
X37804285Y20030371D02*
X37791904Y20017990D01*
X37791904Y20017990D02*
X37779523Y19993228D01*
D12*
X10942857Y14356168D02*
X10923809Y14337120D01*
X10923809Y14337120D02*
X10866667Y14318073D01*
X10866667Y14318073D02*
X10828571Y14318073D01*
X10828571Y14318073D02*
X10771428Y14337120D01*
X10771428Y14337120D02*
X10733333Y14375216D01*
X10733333Y14375216D02*
X10714286Y14413311D01*
X10714286Y14413311D02*
X10695238Y14489501D01*
X10695238Y14489501D02*
X10695238Y14546644D01*
X10695238Y14546644D02*
X10714286Y14622835D01*
X10714286Y14622835D02*
X10733333Y14660930D01*
X10733333Y14660930D02*
X10771428Y14699025D01*
X10771428Y14699025D02*
X10828571Y14718073D01*
X10828571Y14718073D02*
X10866667Y14718073D01*
X10866667Y14718073D02*
X10923809Y14699025D01*
X10923809Y14699025D02*
X10942857Y14679978D01*
X11323809Y14318073D02*
X11095238Y14318073D01*
X11209524Y14318073D02*
X11209524Y14718073D01*
X11209524Y14718073D02*
X11171428Y14660930D01*
X11171428Y14660930D02*
X11133333Y14622835D01*
X11133333Y14622835D02*
X11095238Y14603787D01*
X11514285Y14318073D02*
X11590476Y14318073D01*
X11590476Y14318073D02*
X11628571Y14337120D01*
X11628571Y14337120D02*
X11647619Y14356168D01*
X11647619Y14356168D02*
X11685714Y14413311D01*
X11685714Y14413311D02*
X11704761Y14489501D01*
X11704761Y14489501D02*
X11704761Y14641882D01*
X11704761Y14641882D02*
X11685714Y14679978D01*
X11685714Y14679978D02*
X11666666Y14699025D01*
X11666666Y14699025D02*
X11628571Y14718073D01*
X11628571Y14718073D02*
X11552380Y14718073D01*
X11552380Y14718073D02*
X11514285Y14699025D01*
X11514285Y14699025D02*
X11495238Y14679978D01*
X11495238Y14679978D02*
X11476190Y14641882D01*
X11476190Y14641882D02*
X11476190Y14546644D01*
X11476190Y14546644D02*
X11495238Y14508549D01*
X11495238Y14508549D02*
X11514285Y14489501D01*
X11514285Y14489501D02*
X11552380Y14470454D01*
X11552380Y14470454D02*
X11628571Y14470454D01*
X11628571Y14470454D02*
X11666666Y14489501D01*
X11666666Y14489501D02*
X11685714Y14508549D01*
X11685714Y14508549D02*
X11704761Y14546644D01*
D11*
X35189765Y22178334D02*
X35201670Y22166430D01*
X35201670Y22166430D02*
X35213574Y22130715D01*
X35213574Y22130715D02*
X35213574Y22106906D01*
X35213574Y22106906D02*
X35201670Y22071192D01*
X35201670Y22071192D02*
X35177860Y22047382D01*
X35177860Y22047382D02*
X35154050Y22035477D01*
X35154050Y22035477D02*
X35106431Y22023573D01*
X35106431Y22023573D02*
X35070717Y22023573D01*
X35070717Y22023573D02*
X35023098Y22035477D01*
X35023098Y22035477D02*
X34999289Y22047382D01*
X34999289Y22047382D02*
X34975479Y22071192D01*
X34975479Y22071192D02*
X34963574Y22106906D01*
X34963574Y22106906D02*
X34963574Y22130715D01*
X34963574Y22130715D02*
X34975479Y22166430D01*
X34975479Y22166430D02*
X34987384Y22178334D01*
X35046908Y22392620D02*
X35213574Y22392620D01*
X34951670Y22333096D02*
X35130241Y22273573D01*
X35130241Y22273573D02*
X35130241Y22428334D01*
D10*
X46045180Y24233334D02*
X45330895Y24233334D01*
X45330895Y24233334D02*
X45188038Y24280953D01*
X45188038Y24280953D02*
X45092800Y24376191D01*
X45092800Y24376191D02*
X45045180Y24519048D01*
X45045180Y24519048D02*
X45045180Y24614286D01*
X45045180Y23233334D02*
X45045180Y23804762D01*
X45045180Y23519048D02*
X46045180Y23519048D01*
X46045180Y23519048D02*
X45902323Y23614286D01*
X45902323Y23614286D02*
X45807085Y23709524D01*
X45807085Y23709524D02*
X45759466Y23804762D01*
D11*
X14915457Y8653200D02*
X14828790Y8777009D01*
X14766885Y8653200D02*
X14766885Y8913200D01*
X14766885Y8913200D02*
X14865933Y8913200D01*
X14865933Y8913200D02*
X14890695Y8900819D01*
X14890695Y8900819D02*
X14903076Y8888438D01*
X14903076Y8888438D02*
X14915457Y8863676D01*
X14915457Y8863676D02*
X14915457Y8826533D01*
X14915457Y8826533D02*
X14903076Y8801771D01*
X14903076Y8801771D02*
X14890695Y8789390D01*
X14890695Y8789390D02*
X14865933Y8777009D01*
X14865933Y8777009D02*
X14766885Y8777009D01*
X15163076Y8653200D02*
X15014504Y8653200D01*
X15088790Y8653200D02*
X15088790Y8913200D01*
X15088790Y8913200D02*
X15064028Y8876057D01*
X15064028Y8876057D02*
X15039266Y8851295D01*
X15039266Y8851295D02*
X15014504Y8838914D01*
X15324028Y8913200D02*
X15348790Y8913200D01*
X15348790Y8913200D02*
X15373552Y8900819D01*
X15373552Y8900819D02*
X15385933Y8888438D01*
X15385933Y8888438D02*
X15398314Y8863676D01*
X15398314Y8863676D02*
X15410695Y8814152D01*
X15410695Y8814152D02*
X15410695Y8752247D01*
X15410695Y8752247D02*
X15398314Y8702723D01*
X15398314Y8702723D02*
X15385933Y8677961D01*
X15385933Y8677961D02*
X15373552Y8665580D01*
X15373552Y8665580D02*
X15348790Y8653200D01*
X15348790Y8653200D02*
X15324028Y8653200D01*
X15324028Y8653200D02*
X15299266Y8665580D01*
X15299266Y8665580D02*
X15286885Y8677961D01*
X15286885Y8677961D02*
X15274504Y8702723D01*
X15274504Y8702723D02*
X15262123Y8752247D01*
X15262123Y8752247D02*
X15262123Y8814152D01*
X15262123Y8814152D02*
X15274504Y8863676D01*
X15274504Y8863676D02*
X15286885Y8888438D01*
X15286885Y8888438D02*
X15299266Y8900819D01*
X15299266Y8900819D02*
X15324028Y8913200D01*
X18719285Y28210235D02*
X18707381Y28198330D01*
X18707381Y28198330D02*
X18671666Y28186426D01*
X18671666Y28186426D02*
X18647857Y28186426D01*
X18647857Y28186426D02*
X18612143Y28198330D01*
X18612143Y28198330D02*
X18588333Y28222140D01*
X18588333Y28222140D02*
X18576428Y28245950D01*
X18576428Y28245950D02*
X18564524Y28293569D01*
X18564524Y28293569D02*
X18564524Y28329283D01*
X18564524Y28329283D02*
X18576428Y28376902D01*
X18576428Y28376902D02*
X18588333Y28400711D01*
X18588333Y28400711D02*
X18612143Y28424521D01*
X18612143Y28424521D02*
X18647857Y28436426D01*
X18647857Y28436426D02*
X18671666Y28436426D01*
X18671666Y28436426D02*
X18707381Y28424521D01*
X18707381Y28424521D02*
X18719285Y28412616D01*
X18814524Y28412616D02*
X18826428Y28424521D01*
X18826428Y28424521D02*
X18850238Y28436426D01*
X18850238Y28436426D02*
X18909762Y28436426D01*
X18909762Y28436426D02*
X18933571Y28424521D01*
X18933571Y28424521D02*
X18945476Y28412616D01*
X18945476Y28412616D02*
X18957381Y28388807D01*
X18957381Y28388807D02*
X18957381Y28364997D01*
X18957381Y28364997D02*
X18945476Y28329283D01*
X18945476Y28329283D02*
X18802619Y28186426D01*
X18802619Y28186426D02*
X18957381Y28186426D01*
X19112142Y28436426D02*
X19135952Y28436426D01*
X19135952Y28436426D02*
X19159761Y28424521D01*
X19159761Y28424521D02*
X19171666Y28412616D01*
X19171666Y28412616D02*
X19183571Y28388807D01*
X19183571Y28388807D02*
X19195476Y28341188D01*
X19195476Y28341188D02*
X19195476Y28281664D01*
X19195476Y28281664D02*
X19183571Y28234045D01*
X19183571Y28234045D02*
X19171666Y28210235D01*
X19171666Y28210235D02*
X19159761Y28198330D01*
X19159761Y28198330D02*
X19135952Y28186426D01*
X19135952Y28186426D02*
X19112142Y28186426D01*
X19112142Y28186426D02*
X19088333Y28198330D01*
X19088333Y28198330D02*
X19076428Y28210235D01*
X19076428Y28210235D02*
X19064523Y28234045D01*
X19064523Y28234045D02*
X19052619Y28281664D01*
X19052619Y28281664D02*
X19052619Y28341188D01*
X19052619Y28341188D02*
X19064523Y28388807D01*
X19064523Y28388807D02*
X19076428Y28412616D01*
X19076428Y28412616D02*
X19088333Y28424521D01*
X19088333Y28424521D02*
X19112142Y28436426D01*
D13*
X10351428Y17755135D02*
X10351428Y17172278D01*
X10351428Y17172278D02*
X10385714Y17103706D01*
X10385714Y17103706D02*
X10420000Y17069420D01*
X10420000Y17069420D02*
X10488571Y17035135D01*
X10488571Y17035135D02*
X10625714Y17035135D01*
X10625714Y17035135D02*
X10694285Y17069420D01*
X10694285Y17069420D02*
X10728571Y17103706D01*
X10728571Y17103706D02*
X10762857Y17172278D01*
X10762857Y17172278D02*
X10762857Y17755135D01*
X11482857Y17035135D02*
X11071428Y17035135D01*
X11277143Y17035135D02*
X11277143Y17755135D01*
X11277143Y17755135D02*
X11208571Y17652278D01*
X11208571Y17652278D02*
X11140000Y17583706D01*
X11140000Y17583706D02*
X11071428Y17549420D01*
X10407365Y23051429D02*
X10990222Y23051429D01*
X10990222Y23051429D02*
X11058794Y23085715D01*
X11058794Y23085715D02*
X11093080Y23120000D01*
X11093080Y23120000D02*
X11127365Y23188572D01*
X11127365Y23188572D02*
X11127365Y23325715D01*
X11127365Y23325715D02*
X11093080Y23394286D01*
X11093080Y23394286D02*
X11058794Y23428572D01*
X11058794Y23428572D02*
X10990222Y23462858D01*
X10990222Y23462858D02*
X10407365Y23462858D01*
X10475937Y23771429D02*
X10441651Y23805715D01*
X10441651Y23805715D02*
X10407365Y23874286D01*
X10407365Y23874286D02*
X10407365Y24045715D01*
X10407365Y24045715D02*
X10441651Y24114286D01*
X10441651Y24114286D02*
X10475937Y24148572D01*
X10475937Y24148572D02*
X10544508Y24182858D01*
X10544508Y24182858D02*
X10613080Y24182858D01*
X10613080Y24182858D02*
X10715937Y24148572D01*
X10715937Y24148572D02*
X11127365Y23737144D01*
X11127365Y23737144D02*
X11127365Y24182858D01*
D12*
X10942857Y20156168D02*
X10923809Y20137120D01*
X10923809Y20137120D02*
X10866667Y20118073D01*
X10866667Y20118073D02*
X10828571Y20118073D01*
X10828571Y20118073D02*
X10771428Y20137120D01*
X10771428Y20137120D02*
X10733333Y20175216D01*
X10733333Y20175216D02*
X10714286Y20213311D01*
X10714286Y20213311D02*
X10695238Y20289501D01*
X10695238Y20289501D02*
X10695238Y20346644D01*
X10695238Y20346644D02*
X10714286Y20422835D01*
X10714286Y20422835D02*
X10733333Y20460930D01*
X10733333Y20460930D02*
X10771428Y20499025D01*
X10771428Y20499025D02*
X10828571Y20518073D01*
X10828571Y20518073D02*
X10866667Y20518073D01*
X10866667Y20518073D02*
X10923809Y20499025D01*
X10923809Y20499025D02*
X10942857Y20479978D01*
X11323809Y20118073D02*
X11095238Y20118073D01*
X11209524Y20118073D02*
X11209524Y20518073D01*
X11209524Y20518073D02*
X11171428Y20460930D01*
X11171428Y20460930D02*
X11133333Y20422835D01*
X11133333Y20422835D02*
X11095238Y20403787D01*
X11552380Y20346644D02*
X11514285Y20365692D01*
X11514285Y20365692D02*
X11495238Y20384740D01*
X11495238Y20384740D02*
X11476190Y20422835D01*
X11476190Y20422835D02*
X11476190Y20441882D01*
X11476190Y20441882D02*
X11495238Y20479978D01*
X11495238Y20479978D02*
X11514285Y20499025D01*
X11514285Y20499025D02*
X11552380Y20518073D01*
X11552380Y20518073D02*
X11628571Y20518073D01*
X11628571Y20518073D02*
X11666666Y20499025D01*
X11666666Y20499025D02*
X11685714Y20479978D01*
X11685714Y20479978D02*
X11704761Y20441882D01*
X11704761Y20441882D02*
X11704761Y20422835D01*
X11704761Y20422835D02*
X11685714Y20384740D01*
X11685714Y20384740D02*
X11666666Y20365692D01*
X11666666Y20365692D02*
X11628571Y20346644D01*
X11628571Y20346644D02*
X11552380Y20346644D01*
X11552380Y20346644D02*
X11514285Y20327597D01*
X11514285Y20327597D02*
X11495238Y20308549D01*
X11495238Y20308549D02*
X11476190Y20270454D01*
X11476190Y20270454D02*
X11476190Y20194263D01*
X11476190Y20194263D02*
X11495238Y20156168D01*
X11495238Y20156168D02*
X11514285Y20137120D01*
X11514285Y20137120D02*
X11552380Y20118073D01*
X11552380Y20118073D02*
X11628571Y20118073D01*
X11628571Y20118073D02*
X11666666Y20137120D01*
X11666666Y20137120D02*
X11685714Y20156168D01*
X11685714Y20156168D02*
X11704761Y20194263D01*
X11704761Y20194263D02*
X11704761Y20270454D01*
X11704761Y20270454D02*
X11685714Y20308549D01*
X11685714Y20308549D02*
X11666666Y20327597D01*
X11666666Y20327597D02*
X11628571Y20346644D01*
D10*
X40349404Y23968991D02*
X40016071Y23968991D01*
X40016071Y23445181D02*
X40016071Y24445181D01*
X40016071Y24445181D02*
X40492261Y24445181D01*
X41349404Y23445181D02*
X40873214Y23445181D01*
X40873214Y23445181D02*
X40873214Y24445181D01*
X42206547Y23445181D02*
X41635119Y23445181D01*
X41920833Y23445181D02*
X41920833Y24445181D01*
X41920833Y24445181D02*
X41825595Y24302324D01*
X41825595Y24302324D02*
X41730357Y24207086D01*
X41730357Y24207086D02*
X41635119Y24159467D01*
D11*
X27459285Y17210235D02*
X27447381Y17198330D01*
X27447381Y17198330D02*
X27411666Y17186426D01*
X27411666Y17186426D02*
X27387857Y17186426D01*
X27387857Y17186426D02*
X27352143Y17198330D01*
X27352143Y17198330D02*
X27328333Y17222140D01*
X27328333Y17222140D02*
X27316428Y17245950D01*
X27316428Y17245950D02*
X27304524Y17293569D01*
X27304524Y17293569D02*
X27304524Y17329283D01*
X27304524Y17329283D02*
X27316428Y17376902D01*
X27316428Y17376902D02*
X27328333Y17400711D01*
X27328333Y17400711D02*
X27352143Y17424521D01*
X27352143Y17424521D02*
X27387857Y17436426D01*
X27387857Y17436426D02*
X27411666Y17436426D01*
X27411666Y17436426D02*
X27447381Y17424521D01*
X27447381Y17424521D02*
X27459285Y17412616D01*
X27697381Y17186426D02*
X27554524Y17186426D01*
X27625952Y17186426D02*
X27625952Y17436426D01*
X27625952Y17436426D02*
X27602143Y17400711D01*
X27602143Y17400711D02*
X27578333Y17376902D01*
X27578333Y17376902D02*
X27554524Y17364997D01*
X27923571Y17436426D02*
X27804523Y17436426D01*
X27804523Y17436426D02*
X27792619Y17317378D01*
X27792619Y17317378D02*
X27804523Y17329283D01*
X27804523Y17329283D02*
X27828333Y17341188D01*
X27828333Y17341188D02*
X27887857Y17341188D01*
X27887857Y17341188D02*
X27911666Y17329283D01*
X27911666Y17329283D02*
X27923571Y17317378D01*
X27923571Y17317378D02*
X27935476Y17293569D01*
X27935476Y17293569D02*
X27935476Y17234045D01*
X27935476Y17234045D02*
X27923571Y17210235D01*
X27923571Y17210235D02*
X27911666Y17198330D01*
X27911666Y17198330D02*
X27887857Y17186426D01*
X27887857Y17186426D02*
X27828333Y17186426D01*
X27828333Y17186426D02*
X27804523Y17198330D01*
X27804523Y17198330D02*
X27792619Y17210235D01*
X29476667Y17181800D02*
X29390000Y17305609D01*
X29328095Y17181800D02*
X29328095Y17441800D01*
X29328095Y17441800D02*
X29427143Y17441800D01*
X29427143Y17441800D02*
X29451905Y17429419D01*
X29451905Y17429419D02*
X29464286Y17417038D01*
X29464286Y17417038D02*
X29476667Y17392276D01*
X29476667Y17392276D02*
X29476667Y17355133D01*
X29476667Y17355133D02*
X29464286Y17330371D01*
X29464286Y17330371D02*
X29451905Y17317990D01*
X29451905Y17317990D02*
X29427143Y17305609D01*
X29427143Y17305609D02*
X29328095Y17305609D01*
X29575714Y17417038D02*
X29588095Y17429419D01*
X29588095Y17429419D02*
X29612857Y17441800D01*
X29612857Y17441800D02*
X29674762Y17441800D01*
X29674762Y17441800D02*
X29699524Y17429419D01*
X29699524Y17429419D02*
X29711905Y17417038D01*
X29711905Y17417038D02*
X29724286Y17392276D01*
X29724286Y17392276D02*
X29724286Y17367514D01*
X29724286Y17367514D02*
X29711905Y17330371D01*
X29711905Y17330371D02*
X29563333Y17181800D01*
X29563333Y17181800D02*
X29724286Y17181800D01*
X14915457Y6748200D02*
X14828790Y6872009D01*
X14766885Y6748200D02*
X14766885Y7008200D01*
X14766885Y7008200D02*
X14865933Y7008200D01*
X14865933Y7008200D02*
X14890695Y6995819D01*
X14890695Y6995819D02*
X14903076Y6983438D01*
X14903076Y6983438D02*
X14915457Y6958676D01*
X14915457Y6958676D02*
X14915457Y6921533D01*
X14915457Y6921533D02*
X14903076Y6896771D01*
X14903076Y6896771D02*
X14890695Y6884390D01*
X14890695Y6884390D02*
X14865933Y6872009D01*
X14865933Y6872009D02*
X14766885Y6872009D01*
X15163076Y6748200D02*
X15014504Y6748200D01*
X15088790Y6748200D02*
X15088790Y7008200D01*
X15088790Y7008200D02*
X15064028Y6971057D01*
X15064028Y6971057D02*
X15039266Y6946295D01*
X15039266Y6946295D02*
X15014504Y6933914D01*
X15410695Y6748200D02*
X15262123Y6748200D01*
X15336409Y6748200D02*
X15336409Y7008200D01*
X15336409Y7008200D02*
X15311647Y6971057D01*
X15311647Y6971057D02*
X15286885Y6946295D01*
X15286885Y6946295D02*
X15262123Y6933914D01*
X24658333Y23910235D02*
X24646429Y23898330D01*
X24646429Y23898330D02*
X24610714Y23886426D01*
X24610714Y23886426D02*
X24586905Y23886426D01*
X24586905Y23886426D02*
X24551191Y23898330D01*
X24551191Y23898330D02*
X24527381Y23922140D01*
X24527381Y23922140D02*
X24515476Y23945950D01*
X24515476Y23945950D02*
X24503572Y23993569D01*
X24503572Y23993569D02*
X24503572Y24029283D01*
X24503572Y24029283D02*
X24515476Y24076902D01*
X24515476Y24076902D02*
X24527381Y24100711D01*
X24527381Y24100711D02*
X24551191Y24124521D01*
X24551191Y24124521D02*
X24586905Y24136426D01*
X24586905Y24136426D02*
X24610714Y24136426D01*
X24610714Y24136426D02*
X24646429Y24124521D01*
X24646429Y24124521D02*
X24658333Y24112616D01*
X24753572Y24112616D02*
X24765476Y24124521D01*
X24765476Y24124521D02*
X24789286Y24136426D01*
X24789286Y24136426D02*
X24848810Y24136426D01*
X24848810Y24136426D02*
X24872619Y24124521D01*
X24872619Y24124521D02*
X24884524Y24112616D01*
X24884524Y24112616D02*
X24896429Y24088807D01*
X24896429Y24088807D02*
X24896429Y24064997D01*
X24896429Y24064997D02*
X24884524Y24029283D01*
X24884524Y24029283D02*
X24741667Y23886426D01*
X24741667Y23886426D02*
X24896429Y23886426D01*
D10*
X31007200Y4266668D02*
X31054819Y4409525D01*
X31054819Y4409525D02*
X31054819Y4647620D01*
X31054819Y4647620D02*
X31007200Y4742858D01*
X31007200Y4742858D02*
X30959580Y4790477D01*
X30959580Y4790477D02*
X30864342Y4838096D01*
X30864342Y4838096D02*
X30769104Y4838096D01*
X30769104Y4838096D02*
X30673866Y4790477D01*
X30673866Y4790477D02*
X30626247Y4742858D01*
X30626247Y4742858D02*
X30578628Y4647620D01*
X30578628Y4647620D02*
X30531009Y4457144D01*
X30531009Y4457144D02*
X30483390Y4361906D01*
X30483390Y4361906D02*
X30435771Y4314287D01*
X30435771Y4314287D02*
X30340533Y4266668D01*
X30340533Y4266668D02*
X30245295Y4266668D01*
X30245295Y4266668D02*
X30150057Y4314287D01*
X30150057Y4314287D02*
X30102438Y4361906D01*
X30102438Y4361906D02*
X30054819Y4457144D01*
X30054819Y4457144D02*
X30054819Y4695239D01*
X30054819Y4695239D02*
X30102438Y4838096D01*
X30054819Y5171430D02*
X31054819Y5409525D01*
X31054819Y5409525D02*
X30340533Y5600001D01*
X30340533Y5600001D02*
X31054819Y5790477D01*
X31054819Y5790477D02*
X30054819Y6028572D01*
X30150057Y6361906D02*
X30102438Y6409525D01*
X30102438Y6409525D02*
X30054819Y6504763D01*
X30054819Y6504763D02*
X30054819Y6742858D01*
X30054819Y6742858D02*
X30102438Y6838096D01*
X30102438Y6838096D02*
X30150057Y6885715D01*
X30150057Y6885715D02*
X30245295Y6933334D01*
X30245295Y6933334D02*
X30340533Y6933334D01*
X30340533Y6933334D02*
X30483390Y6885715D01*
X30483390Y6885715D02*
X31054819Y6314287D01*
X31054819Y6314287D02*
X31054819Y6933334D01*
D11*
X39789765Y23239286D02*
X39801670Y23227382D01*
X39801670Y23227382D02*
X39813574Y23191667D01*
X39813574Y23191667D02*
X39813574Y23167858D01*
X39813574Y23167858D02*
X39801670Y23132144D01*
X39801670Y23132144D02*
X39777860Y23108334D01*
X39777860Y23108334D02*
X39754050Y23096429D01*
X39754050Y23096429D02*
X39706431Y23084525D01*
X39706431Y23084525D02*
X39670717Y23084525D01*
X39670717Y23084525D02*
X39623098Y23096429D01*
X39623098Y23096429D02*
X39599289Y23108334D01*
X39599289Y23108334D02*
X39575479Y23132144D01*
X39575479Y23132144D02*
X39563574Y23167858D01*
X39563574Y23167858D02*
X39563574Y23191667D01*
X39563574Y23191667D02*
X39575479Y23227382D01*
X39575479Y23227382D02*
X39587384Y23239286D01*
X39813574Y23477382D02*
X39813574Y23334525D01*
X39813574Y23405953D02*
X39563574Y23405953D01*
X39563574Y23405953D02*
X39599289Y23382144D01*
X39599289Y23382144D02*
X39623098Y23358334D01*
X39623098Y23358334D02*
X39635003Y23334525D01*
X39563574Y23560715D02*
X39563574Y23715477D01*
X39563574Y23715477D02*
X39658812Y23632143D01*
X39658812Y23632143D02*
X39658812Y23667858D01*
X39658812Y23667858D02*
X39670717Y23691667D01*
X39670717Y23691667D02*
X39682622Y23703572D01*
X39682622Y23703572D02*
X39706431Y23715477D01*
X39706431Y23715477D02*
X39765955Y23715477D01*
X39765955Y23715477D02*
X39789765Y23703572D01*
X39789765Y23703572D02*
X39801670Y23691667D01*
X39801670Y23691667D02*
X39813574Y23667858D01*
X39813574Y23667858D02*
X39813574Y23596429D01*
X39813574Y23596429D02*
X39801670Y23572620D01*
X39801670Y23572620D02*
X39789765Y23560715D01*
X32456667Y15381800D02*
X32370000Y15505609D01*
X32308095Y15381800D02*
X32308095Y15641800D01*
X32308095Y15641800D02*
X32407143Y15641800D01*
X32407143Y15641800D02*
X32431905Y15629419D01*
X32431905Y15629419D02*
X32444286Y15617038D01*
X32444286Y15617038D02*
X32456667Y15592276D01*
X32456667Y15592276D02*
X32456667Y15555133D01*
X32456667Y15555133D02*
X32444286Y15530371D01*
X32444286Y15530371D02*
X32431905Y15517990D01*
X32431905Y15517990D02*
X32407143Y15505609D01*
X32407143Y15505609D02*
X32308095Y15505609D01*
X32679524Y15641800D02*
X32630000Y15641800D01*
X32630000Y15641800D02*
X32605238Y15629419D01*
X32605238Y15629419D02*
X32592857Y15617038D01*
X32592857Y15617038D02*
X32568095Y15579895D01*
X32568095Y15579895D02*
X32555714Y15530371D01*
X32555714Y15530371D02*
X32555714Y15431323D01*
X32555714Y15431323D02*
X32568095Y15406561D01*
X32568095Y15406561D02*
X32580476Y15394180D01*
X32580476Y15394180D02*
X32605238Y15381800D01*
X32605238Y15381800D02*
X32654762Y15381800D01*
X32654762Y15381800D02*
X32679524Y15394180D01*
X32679524Y15394180D02*
X32691905Y15406561D01*
X32691905Y15406561D02*
X32704286Y15431323D01*
X32704286Y15431323D02*
X32704286Y15493228D01*
X32704286Y15493228D02*
X32691905Y15517990D01*
X32691905Y15517990D02*
X32679524Y15530371D01*
X32679524Y15530371D02*
X32654762Y15542752D01*
X32654762Y15542752D02*
X32605238Y15542752D01*
X32605238Y15542752D02*
X32580476Y15530371D01*
X32580476Y15530371D02*
X32568095Y15517990D01*
X32568095Y15517990D02*
X32555714Y15493228D01*
X25789765Y20458334D02*
X25801670Y20446430D01*
X25801670Y20446430D02*
X25813574Y20410715D01*
X25813574Y20410715D02*
X25813574Y20386906D01*
X25813574Y20386906D02*
X25801670Y20351192D01*
X25801670Y20351192D02*
X25777860Y20327382D01*
X25777860Y20327382D02*
X25754050Y20315477D01*
X25754050Y20315477D02*
X25706431Y20303573D01*
X25706431Y20303573D02*
X25670717Y20303573D01*
X25670717Y20303573D02*
X25623098Y20315477D01*
X25623098Y20315477D02*
X25599289Y20327382D01*
X25599289Y20327382D02*
X25575479Y20351192D01*
X25575479Y20351192D02*
X25563574Y20386906D01*
X25563574Y20386906D02*
X25563574Y20410715D01*
X25563574Y20410715D02*
X25575479Y20446430D01*
X25575479Y20446430D02*
X25587384Y20458334D01*
X25563574Y20672620D02*
X25563574Y20625001D01*
X25563574Y20625001D02*
X25575479Y20601192D01*
X25575479Y20601192D02*
X25587384Y20589287D01*
X25587384Y20589287D02*
X25623098Y20565477D01*
X25623098Y20565477D02*
X25670717Y20553573D01*
X25670717Y20553573D02*
X25765955Y20553573D01*
X25765955Y20553573D02*
X25789765Y20565477D01*
X25789765Y20565477D02*
X25801670Y20577382D01*
X25801670Y20577382D02*
X25813574Y20601192D01*
X25813574Y20601192D02*
X25813574Y20648811D01*
X25813574Y20648811D02*
X25801670Y20672620D01*
X25801670Y20672620D02*
X25789765Y20684525D01*
X25789765Y20684525D02*
X25765955Y20696430D01*
X25765955Y20696430D02*
X25706431Y20696430D01*
X25706431Y20696430D02*
X25682622Y20684525D01*
X25682622Y20684525D02*
X25670717Y20672620D01*
X25670717Y20672620D02*
X25658812Y20648811D01*
X25658812Y20648811D02*
X25658812Y20601192D01*
X25658812Y20601192D02*
X25670717Y20577382D01*
X25670717Y20577382D02*
X25682622Y20565477D01*
X25682622Y20565477D02*
X25706431Y20553573D01*
D13*
X38995937Y17531429D02*
X38961651Y17462858D01*
X38961651Y17462858D02*
X38893080Y17394286D01*
X38893080Y17394286D02*
X38790222Y17291429D01*
X38790222Y17291429D02*
X38755937Y17222858D01*
X38755937Y17222858D02*
X38755937Y17154286D01*
X38927365Y17188572D02*
X38893080Y17120000D01*
X38893080Y17120000D02*
X38824508Y17051429D01*
X38824508Y17051429D02*
X38687365Y17017143D01*
X38687365Y17017143D02*
X38447365Y17017143D01*
X38447365Y17017143D02*
X38310222Y17051429D01*
X38310222Y17051429D02*
X38241651Y17120000D01*
X38241651Y17120000D02*
X38207365Y17188572D01*
X38207365Y17188572D02*
X38207365Y17325715D01*
X38207365Y17325715D02*
X38241651Y17394286D01*
X38241651Y17394286D02*
X38310222Y17462858D01*
X38310222Y17462858D02*
X38447365Y17497143D01*
X38447365Y17497143D02*
X38687365Y17497143D01*
X38687365Y17497143D02*
X38824508Y17462858D01*
X38824508Y17462858D02*
X38893080Y17394286D01*
X38893080Y17394286D02*
X38927365Y17325715D01*
X38927365Y17325715D02*
X38927365Y17188572D01*
X38927365Y18182858D02*
X38927365Y17771429D01*
X38927365Y17977144D02*
X38207365Y17977144D01*
X38207365Y17977144D02*
X38310222Y17908572D01*
X38310222Y17908572D02*
X38378794Y17840001D01*
X38378794Y17840001D02*
X38413080Y17771429D01*
D11*
X36789765Y23239286D02*
X36801670Y23227382D01*
X36801670Y23227382D02*
X36813574Y23191667D01*
X36813574Y23191667D02*
X36813574Y23167858D01*
X36813574Y23167858D02*
X36801670Y23132144D01*
X36801670Y23132144D02*
X36777860Y23108334D01*
X36777860Y23108334D02*
X36754050Y23096429D01*
X36754050Y23096429D02*
X36706431Y23084525D01*
X36706431Y23084525D02*
X36670717Y23084525D01*
X36670717Y23084525D02*
X36623098Y23096429D01*
X36623098Y23096429D02*
X36599289Y23108334D01*
X36599289Y23108334D02*
X36575479Y23132144D01*
X36575479Y23132144D02*
X36563574Y23167858D01*
X36563574Y23167858D02*
X36563574Y23191667D01*
X36563574Y23191667D02*
X36575479Y23227382D01*
X36575479Y23227382D02*
X36587384Y23239286D01*
X36813574Y23477382D02*
X36813574Y23334525D01*
X36813574Y23405953D02*
X36563574Y23405953D01*
X36563574Y23405953D02*
X36599289Y23382144D01*
X36599289Y23382144D02*
X36623098Y23358334D01*
X36623098Y23358334D02*
X36635003Y23334525D01*
X36587384Y23572620D02*
X36575479Y23584524D01*
X36575479Y23584524D02*
X36563574Y23608334D01*
X36563574Y23608334D02*
X36563574Y23667858D01*
X36563574Y23667858D02*
X36575479Y23691667D01*
X36575479Y23691667D02*
X36587384Y23703572D01*
X36587384Y23703572D02*
X36611193Y23715477D01*
X36611193Y23715477D02*
X36635003Y23715477D01*
X36635003Y23715477D02*
X36670717Y23703572D01*
X36670717Y23703572D02*
X36813574Y23560715D01*
X36813574Y23560715D02*
X36813574Y23715477D01*
X4756667Y29181800D02*
X4670000Y29305609D01*
X4608095Y29181800D02*
X4608095Y29441800D01*
X4608095Y29441800D02*
X4707143Y29441800D01*
X4707143Y29441800D02*
X4731905Y29429419D01*
X4731905Y29429419D02*
X4744286Y29417038D01*
X4744286Y29417038D02*
X4756667Y29392276D01*
X4756667Y29392276D02*
X4756667Y29355133D01*
X4756667Y29355133D02*
X4744286Y29330371D01*
X4744286Y29330371D02*
X4731905Y29317990D01*
X4731905Y29317990D02*
X4707143Y29305609D01*
X4707143Y29305609D02*
X4608095Y29305609D01*
X4905238Y29330371D02*
X4880476Y29342752D01*
X4880476Y29342752D02*
X4868095Y29355133D01*
X4868095Y29355133D02*
X4855714Y29379895D01*
X4855714Y29379895D02*
X4855714Y29392276D01*
X4855714Y29392276D02*
X4868095Y29417038D01*
X4868095Y29417038D02*
X4880476Y29429419D01*
X4880476Y29429419D02*
X4905238Y29441800D01*
X4905238Y29441800D02*
X4954762Y29441800D01*
X4954762Y29441800D02*
X4979524Y29429419D01*
X4979524Y29429419D02*
X4991905Y29417038D01*
X4991905Y29417038D02*
X5004286Y29392276D01*
X5004286Y29392276D02*
X5004286Y29379895D01*
X5004286Y29379895D02*
X4991905Y29355133D01*
X4991905Y29355133D02*
X4979524Y29342752D01*
X4979524Y29342752D02*
X4954762Y29330371D01*
X4954762Y29330371D02*
X4905238Y29330371D01*
X4905238Y29330371D02*
X4880476Y29317990D01*
X4880476Y29317990D02*
X4868095Y29305609D01*
X4868095Y29305609D02*
X4855714Y29280847D01*
X4855714Y29280847D02*
X4855714Y29231323D01*
X4855714Y29231323D02*
X4868095Y29206561D01*
X4868095Y29206561D02*
X4880476Y29194180D01*
X4880476Y29194180D02*
X4905238Y29181800D01*
X4905238Y29181800D02*
X4954762Y29181800D01*
X4954762Y29181800D02*
X4979524Y29194180D01*
X4979524Y29194180D02*
X4991905Y29206561D01*
X4991905Y29206561D02*
X5004286Y29231323D01*
X5004286Y29231323D02*
X5004286Y29280847D01*
X5004286Y29280847D02*
X4991905Y29305609D01*
X4991905Y29305609D02*
X4979524Y29317990D01*
X4979524Y29317990D02*
X4954762Y29330371D01*
D10*
X18854819Y23066667D02*
X19569104Y23066667D01*
X19569104Y23066667D02*
X19711961Y23019048D01*
X19711961Y23019048D02*
X19807200Y22923810D01*
X19807200Y22923810D02*
X19854819Y22780953D01*
X19854819Y22780953D02*
X19854819Y22685715D01*
X18854819Y23447620D02*
X18854819Y24066667D01*
X18854819Y24066667D02*
X19235771Y23733334D01*
X19235771Y23733334D02*
X19235771Y23876191D01*
X19235771Y23876191D02*
X19283390Y23971429D01*
X19283390Y23971429D02*
X19331009Y24019048D01*
X19331009Y24019048D02*
X19426247Y24066667D01*
X19426247Y24066667D02*
X19664342Y24066667D01*
X19664342Y24066667D02*
X19759580Y24019048D01*
X19759580Y24019048D02*
X19807200Y23971429D01*
X19807200Y23971429D02*
X19854819Y23876191D01*
X19854819Y23876191D02*
X19854819Y23590477D01*
X19854819Y23590477D02*
X19807200Y23495239D01*
X19807200Y23495239D02*
X19759580Y23447620D01*
D12*
X24343832Y17933334D02*
X24362880Y17914286D01*
X24362880Y17914286D02*
X24381927Y17857144D01*
X24381927Y17857144D02*
X24381927Y17819048D01*
X24381927Y17819048D02*
X24362880Y17761905D01*
X24362880Y17761905D02*
X24324784Y17723810D01*
X24324784Y17723810D02*
X24286689Y17704763D01*
X24286689Y17704763D02*
X24210499Y17685715D01*
X24210499Y17685715D02*
X24153356Y17685715D01*
X24153356Y17685715D02*
X24077165Y17704763D01*
X24077165Y17704763D02*
X24039070Y17723810D01*
X24039070Y17723810D02*
X24000975Y17761905D01*
X24000975Y17761905D02*
X23981927Y17819048D01*
X23981927Y17819048D02*
X23981927Y17857144D01*
X23981927Y17857144D02*
X24000975Y17914286D01*
X24000975Y17914286D02*
X24020022Y17933334D01*
X24381927Y18314286D02*
X24381927Y18085715D01*
X24381927Y18200001D02*
X23981927Y18200001D01*
X23981927Y18200001D02*
X24039070Y18161905D01*
X24039070Y18161905D02*
X24077165Y18123810D01*
X24077165Y18123810D02*
X24096213Y18085715D01*
D11*
X38158333Y23786426D02*
X38039285Y23786426D01*
X38039285Y23786426D02*
X38039285Y24036426D01*
X38217857Y24036426D02*
X38372619Y24036426D01*
X38372619Y24036426D02*
X38289285Y23941188D01*
X38289285Y23941188D02*
X38325000Y23941188D01*
X38325000Y23941188D02*
X38348809Y23929283D01*
X38348809Y23929283D02*
X38360714Y23917378D01*
X38360714Y23917378D02*
X38372619Y23893569D01*
X38372619Y23893569D02*
X38372619Y23834045D01*
X38372619Y23834045D02*
X38360714Y23810235D01*
X38360714Y23810235D02*
X38348809Y23798330D01*
X38348809Y23798330D02*
X38325000Y23786426D01*
X38325000Y23786426D02*
X38253571Y23786426D01*
X38253571Y23786426D02*
X38229762Y23798330D01*
X38229762Y23798330D02*
X38217857Y23810235D01*
D12*
X30667857Y27556168D02*
X30648809Y27537120D01*
X30648809Y27537120D02*
X30591667Y27518073D01*
X30591667Y27518073D02*
X30553571Y27518073D01*
X30553571Y27518073D02*
X30496428Y27537120D01*
X30496428Y27537120D02*
X30458333Y27575216D01*
X30458333Y27575216D02*
X30439286Y27613311D01*
X30439286Y27613311D02*
X30420238Y27689501D01*
X30420238Y27689501D02*
X30420238Y27746644D01*
X30420238Y27746644D02*
X30439286Y27822835D01*
X30439286Y27822835D02*
X30458333Y27860930D01*
X30458333Y27860930D02*
X30496428Y27899025D01*
X30496428Y27899025D02*
X30553571Y27918073D01*
X30553571Y27918073D02*
X30591667Y27918073D01*
X30591667Y27918073D02*
X30648809Y27899025D01*
X30648809Y27899025D02*
X30667857Y27879978D01*
X31048809Y27518073D02*
X30820238Y27518073D01*
X30934524Y27518073D02*
X30934524Y27918073D01*
X30934524Y27918073D02*
X30896428Y27860930D01*
X30896428Y27860930D02*
X30858333Y27822835D01*
X30858333Y27822835D02*
X30820238Y27803787D01*
X31429761Y27518073D02*
X31201190Y27518073D01*
X31315476Y27518073D02*
X31315476Y27918073D01*
X31315476Y27918073D02*
X31277380Y27860930D01*
X31277380Y27860930D02*
X31239285Y27822835D01*
X31239285Y27822835D02*
X31201190Y27803787D01*
D11*
X30789765Y15539286D02*
X30801670Y15527382D01*
X30801670Y15527382D02*
X30813574Y15491667D01*
X30813574Y15491667D02*
X30813574Y15467858D01*
X30813574Y15467858D02*
X30801670Y15432144D01*
X30801670Y15432144D02*
X30777860Y15408334D01*
X30777860Y15408334D02*
X30754050Y15396429D01*
X30754050Y15396429D02*
X30706431Y15384525D01*
X30706431Y15384525D02*
X30670717Y15384525D01*
X30670717Y15384525D02*
X30623098Y15396429D01*
X30623098Y15396429D02*
X30599289Y15408334D01*
X30599289Y15408334D02*
X30575479Y15432144D01*
X30575479Y15432144D02*
X30563574Y15467858D01*
X30563574Y15467858D02*
X30563574Y15491667D01*
X30563574Y15491667D02*
X30575479Y15527382D01*
X30575479Y15527382D02*
X30587384Y15539286D01*
X30813574Y15777382D02*
X30813574Y15634525D01*
X30813574Y15705953D02*
X30563574Y15705953D01*
X30563574Y15705953D02*
X30599289Y15682144D01*
X30599289Y15682144D02*
X30623098Y15658334D01*
X30623098Y15658334D02*
X30635003Y15634525D01*
X30646908Y15991667D02*
X30813574Y15991667D01*
X30551670Y15932143D02*
X30730241Y15872620D01*
X30730241Y15872620D02*
X30730241Y16027381D01*
X32339285Y16410235D02*
X32327381Y16398330D01*
X32327381Y16398330D02*
X32291666Y16386426D01*
X32291666Y16386426D02*
X32267857Y16386426D01*
X32267857Y16386426D02*
X32232143Y16398330D01*
X32232143Y16398330D02*
X32208333Y16422140D01*
X32208333Y16422140D02*
X32196428Y16445950D01*
X32196428Y16445950D02*
X32184524Y16493569D01*
X32184524Y16493569D02*
X32184524Y16529283D01*
X32184524Y16529283D02*
X32196428Y16576902D01*
X32196428Y16576902D02*
X32208333Y16600711D01*
X32208333Y16600711D02*
X32232143Y16624521D01*
X32232143Y16624521D02*
X32267857Y16636426D01*
X32267857Y16636426D02*
X32291666Y16636426D01*
X32291666Y16636426D02*
X32327381Y16624521D01*
X32327381Y16624521D02*
X32339285Y16612616D01*
X32577381Y16386426D02*
X32434524Y16386426D01*
X32505952Y16386426D02*
X32505952Y16636426D01*
X32505952Y16636426D02*
X32482143Y16600711D01*
X32482143Y16600711D02*
X32458333Y16576902D01*
X32458333Y16576902D02*
X32434524Y16564997D01*
X32660714Y16636426D02*
X32827380Y16636426D01*
X32827380Y16636426D02*
X32720238Y16386426D01*
X27178333Y27310235D02*
X27166429Y27298330D01*
X27166429Y27298330D02*
X27130714Y27286426D01*
X27130714Y27286426D02*
X27106905Y27286426D01*
X27106905Y27286426D02*
X27071191Y27298330D01*
X27071191Y27298330D02*
X27047381Y27322140D01*
X27047381Y27322140D02*
X27035476Y27345950D01*
X27035476Y27345950D02*
X27023572Y27393569D01*
X27023572Y27393569D02*
X27023572Y27429283D01*
X27023572Y27429283D02*
X27035476Y27476902D01*
X27035476Y27476902D02*
X27047381Y27500711D01*
X27047381Y27500711D02*
X27071191Y27524521D01*
X27071191Y27524521D02*
X27106905Y27536426D01*
X27106905Y27536426D02*
X27130714Y27536426D01*
X27130714Y27536426D02*
X27166429Y27524521D01*
X27166429Y27524521D02*
X27178333Y27512616D01*
X27404524Y27536426D02*
X27285476Y27536426D01*
X27285476Y27536426D02*
X27273572Y27417378D01*
X27273572Y27417378D02*
X27285476Y27429283D01*
X27285476Y27429283D02*
X27309286Y27441188D01*
X27309286Y27441188D02*
X27368810Y27441188D01*
X27368810Y27441188D02*
X27392619Y27429283D01*
X27392619Y27429283D02*
X27404524Y27417378D01*
X27404524Y27417378D02*
X27416429Y27393569D01*
X27416429Y27393569D02*
X27416429Y27334045D01*
X27416429Y27334045D02*
X27404524Y27310235D01*
X27404524Y27310235D02*
X27392619Y27298330D01*
X27392619Y27298330D02*
X27368810Y27286426D01*
X27368810Y27286426D02*
X27309286Y27286426D01*
X27309286Y27286426D02*
X27285476Y27298330D01*
X27285476Y27298330D02*
X27273572Y27310235D01*
X29013574Y27871934D02*
X29013574Y27752886D01*
X29013574Y27752886D02*
X28763574Y27752886D01*
X29013574Y28086220D02*
X29013574Y27943363D01*
X29013574Y28014791D02*
X28763574Y28014791D01*
X28763574Y28014791D02*
X28799289Y27990982D01*
X28799289Y27990982D02*
X28823098Y27967172D01*
X28823098Y27967172D02*
X28835003Y27943363D01*
X32838333Y17510235D02*
X32826429Y17498330D01*
X32826429Y17498330D02*
X32790714Y17486426D01*
X32790714Y17486426D02*
X32766905Y17486426D01*
X32766905Y17486426D02*
X32731191Y17498330D01*
X32731191Y17498330D02*
X32707381Y17522140D01*
X32707381Y17522140D02*
X32695476Y17545950D01*
X32695476Y17545950D02*
X32683572Y17593569D01*
X32683572Y17593569D02*
X32683572Y17629283D01*
X32683572Y17629283D02*
X32695476Y17676902D01*
X32695476Y17676902D02*
X32707381Y17700711D01*
X32707381Y17700711D02*
X32731191Y17724521D01*
X32731191Y17724521D02*
X32766905Y17736426D01*
X32766905Y17736426D02*
X32790714Y17736426D01*
X32790714Y17736426D02*
X32826429Y17724521D01*
X32826429Y17724521D02*
X32838333Y17712616D01*
X32921667Y17736426D02*
X33076429Y17736426D01*
X33076429Y17736426D02*
X32993095Y17641188D01*
X32993095Y17641188D02*
X33028810Y17641188D01*
X33028810Y17641188D02*
X33052619Y17629283D01*
X33052619Y17629283D02*
X33064524Y17617378D01*
X33064524Y17617378D02*
X33076429Y17593569D01*
X33076429Y17593569D02*
X33076429Y17534045D01*
X33076429Y17534045D02*
X33064524Y17510235D01*
X33064524Y17510235D02*
X33052619Y17498330D01*
X33052619Y17498330D02*
X33028810Y17486426D01*
X33028810Y17486426D02*
X32957381Y17486426D01*
X32957381Y17486426D02*
X32933572Y17498330D01*
X32933572Y17498330D02*
X32921667Y17510235D01*
X35289765Y25239286D02*
X35301670Y25227382D01*
X35301670Y25227382D02*
X35313574Y25191667D01*
X35313574Y25191667D02*
X35313574Y25167858D01*
X35313574Y25167858D02*
X35301670Y25132144D01*
X35301670Y25132144D02*
X35277860Y25108334D01*
X35277860Y25108334D02*
X35254050Y25096429D01*
X35254050Y25096429D02*
X35206431Y25084525D01*
X35206431Y25084525D02*
X35170717Y25084525D01*
X35170717Y25084525D02*
X35123098Y25096429D01*
X35123098Y25096429D02*
X35099289Y25108334D01*
X35099289Y25108334D02*
X35075479Y25132144D01*
X35075479Y25132144D02*
X35063574Y25167858D01*
X35063574Y25167858D02*
X35063574Y25191667D01*
X35063574Y25191667D02*
X35075479Y25227382D01*
X35075479Y25227382D02*
X35087384Y25239286D01*
X35313574Y25477382D02*
X35313574Y25334525D01*
X35313574Y25405953D02*
X35063574Y25405953D01*
X35063574Y25405953D02*
X35099289Y25382144D01*
X35099289Y25382144D02*
X35123098Y25358334D01*
X35123098Y25358334D02*
X35135003Y25334525D01*
X35063574Y25632143D02*
X35063574Y25655953D01*
X35063574Y25655953D02*
X35075479Y25679762D01*
X35075479Y25679762D02*
X35087384Y25691667D01*
X35087384Y25691667D02*
X35111193Y25703572D01*
X35111193Y25703572D02*
X35158812Y25715477D01*
X35158812Y25715477D02*
X35218336Y25715477D01*
X35218336Y25715477D02*
X35265955Y25703572D01*
X35265955Y25703572D02*
X35289765Y25691667D01*
X35289765Y25691667D02*
X35301670Y25679762D01*
X35301670Y25679762D02*
X35313574Y25655953D01*
X35313574Y25655953D02*
X35313574Y25632143D01*
X35313574Y25632143D02*
X35301670Y25608334D01*
X35301670Y25608334D02*
X35289765Y25596429D01*
X35289765Y25596429D02*
X35265955Y25584524D01*
X35265955Y25584524D02*
X35218336Y25572620D01*
X35218336Y25572620D02*
X35158812Y25572620D01*
X35158812Y25572620D02*
X35111193Y25584524D01*
X35111193Y25584524D02*
X35087384Y25596429D01*
X35087384Y25596429D02*
X35075479Y25608334D01*
X35075479Y25608334D02*
X35063574Y25632143D01*
D14*
X30054166Y29601451D02*
X29816071Y29601451D01*
X29816071Y29601451D02*
X29816071Y30101451D01*
X30197024Y30053832D02*
X30220833Y30077641D01*
X30220833Y30077641D02*
X30268452Y30101451D01*
X30268452Y30101451D02*
X30387500Y30101451D01*
X30387500Y30101451D02*
X30435119Y30077641D01*
X30435119Y30077641D02*
X30458928Y30053832D01*
X30458928Y30053832D02*
X30482738Y30006213D01*
X30482738Y30006213D02*
X30482738Y29958594D01*
X30482738Y29958594D02*
X30458928Y29887165D01*
X30458928Y29887165D02*
X30173214Y29601451D01*
X30173214Y29601451D02*
X30482738Y29601451D01*
D11*
X37518200Y28606668D02*
X37394391Y28520001D01*
X37518200Y28458096D02*
X37258200Y28458096D01*
X37258200Y28458096D02*
X37258200Y28557144D01*
X37258200Y28557144D02*
X37270581Y28581906D01*
X37270581Y28581906D02*
X37282962Y28594287D01*
X37282962Y28594287D02*
X37307724Y28606668D01*
X37307724Y28606668D02*
X37344867Y28606668D01*
X37344867Y28606668D02*
X37369629Y28594287D01*
X37369629Y28594287D02*
X37382010Y28581906D01*
X37382010Y28581906D02*
X37394391Y28557144D01*
X37394391Y28557144D02*
X37394391Y28458096D01*
X37518200Y28854287D02*
X37518200Y28705715D01*
X37518200Y28780001D02*
X37258200Y28780001D01*
X37258200Y28780001D02*
X37295343Y28755239D01*
X37295343Y28755239D02*
X37320105Y28730477D01*
X37320105Y28730477D02*
X37332486Y28705715D01*
X8989765Y10119286D02*
X9001670Y10107382D01*
X9001670Y10107382D02*
X9013574Y10071667D01*
X9013574Y10071667D02*
X9013574Y10047858D01*
X9013574Y10047858D02*
X9001670Y10012144D01*
X9001670Y10012144D02*
X8977860Y9988334D01*
X8977860Y9988334D02*
X8954050Y9976429D01*
X8954050Y9976429D02*
X8906431Y9964525D01*
X8906431Y9964525D02*
X8870717Y9964525D01*
X8870717Y9964525D02*
X8823098Y9976429D01*
X8823098Y9976429D02*
X8799289Y9988334D01*
X8799289Y9988334D02*
X8775479Y10012144D01*
X8775479Y10012144D02*
X8763574Y10047858D01*
X8763574Y10047858D02*
X8763574Y10071667D01*
X8763574Y10071667D02*
X8775479Y10107382D01*
X8775479Y10107382D02*
X8787384Y10119286D01*
X8787384Y10214525D02*
X8775479Y10226429D01*
X8775479Y10226429D02*
X8763574Y10250239D01*
X8763574Y10250239D02*
X8763574Y10309763D01*
X8763574Y10309763D02*
X8775479Y10333572D01*
X8775479Y10333572D02*
X8787384Y10345477D01*
X8787384Y10345477D02*
X8811193Y10357382D01*
X8811193Y10357382D02*
X8835003Y10357382D01*
X8835003Y10357382D02*
X8870717Y10345477D01*
X8870717Y10345477D02*
X9013574Y10202620D01*
X9013574Y10202620D02*
X9013574Y10357382D01*
X9013574Y10595477D02*
X9013574Y10452620D01*
X9013574Y10524048D02*
X8763574Y10524048D01*
X8763574Y10524048D02*
X8799289Y10500239D01*
X8799289Y10500239D02*
X8823098Y10476429D01*
X8823098Y10476429D02*
X8835003Y10452620D01*
X43615476Y17886426D02*
X43615476Y18136426D01*
X43615476Y18136426D02*
X43675000Y18136426D01*
X43675000Y18136426D02*
X43710714Y18124521D01*
X43710714Y18124521D02*
X43734524Y18100711D01*
X43734524Y18100711D02*
X43746429Y18076902D01*
X43746429Y18076902D02*
X43758333Y18029283D01*
X43758333Y18029283D02*
X43758333Y17993569D01*
X43758333Y17993569D02*
X43746429Y17945950D01*
X43746429Y17945950D02*
X43734524Y17922140D01*
X43734524Y17922140D02*
X43710714Y17898330D01*
X43710714Y17898330D02*
X43675000Y17886426D01*
X43675000Y17886426D02*
X43615476Y17886426D01*
X43996429Y17886426D02*
X43853572Y17886426D01*
X43925000Y17886426D02*
X43925000Y18136426D01*
X43925000Y18136426D02*
X43901191Y18100711D01*
X43901191Y18100711D02*
X43877381Y18076902D01*
X43877381Y18076902D02*
X43853572Y18064997D01*
X24789765Y20458334D02*
X24801670Y20446430D01*
X24801670Y20446430D02*
X24813574Y20410715D01*
X24813574Y20410715D02*
X24813574Y20386906D01*
X24813574Y20386906D02*
X24801670Y20351192D01*
X24801670Y20351192D02*
X24777860Y20327382D01*
X24777860Y20327382D02*
X24754050Y20315477D01*
X24754050Y20315477D02*
X24706431Y20303573D01*
X24706431Y20303573D02*
X24670717Y20303573D01*
X24670717Y20303573D02*
X24623098Y20315477D01*
X24623098Y20315477D02*
X24599289Y20327382D01*
X24599289Y20327382D02*
X24575479Y20351192D01*
X24575479Y20351192D02*
X24563574Y20386906D01*
X24563574Y20386906D02*
X24563574Y20410715D01*
X24563574Y20410715D02*
X24575479Y20446430D01*
X24575479Y20446430D02*
X24587384Y20458334D01*
X24563574Y20541668D02*
X24563574Y20708334D01*
X24563574Y20708334D02*
X24813574Y20601192D01*
X41656667Y17881800D02*
X41570000Y18005609D01*
X41508095Y17881800D02*
X41508095Y18141800D01*
X41508095Y18141800D02*
X41607143Y18141800D01*
X41607143Y18141800D02*
X41631905Y18129419D01*
X41631905Y18129419D02*
X41644286Y18117038D01*
X41644286Y18117038D02*
X41656667Y18092276D01*
X41656667Y18092276D02*
X41656667Y18055133D01*
X41656667Y18055133D02*
X41644286Y18030371D01*
X41644286Y18030371D02*
X41631905Y18017990D01*
X41631905Y18017990D02*
X41607143Y18005609D01*
X41607143Y18005609D02*
X41508095Y18005609D01*
X41743333Y18141800D02*
X41904286Y18141800D01*
X41904286Y18141800D02*
X41817619Y18042752D01*
X41817619Y18042752D02*
X41854762Y18042752D01*
X41854762Y18042752D02*
X41879524Y18030371D01*
X41879524Y18030371D02*
X41891905Y18017990D01*
X41891905Y18017990D02*
X41904286Y17993228D01*
X41904286Y17993228D02*
X41904286Y17931323D01*
X41904286Y17931323D02*
X41891905Y17906561D01*
X41891905Y17906561D02*
X41879524Y17894180D01*
X41879524Y17894180D02*
X41854762Y17881800D01*
X41854762Y17881800D02*
X41780476Y17881800D01*
X41780476Y17881800D02*
X41755714Y17894180D01*
X41755714Y17894180D02*
X41743333Y17906561D01*
X9856840Y12981800D02*
X9770173Y13105609D01*
X9708268Y12981800D02*
X9708268Y13241800D01*
X9708268Y13241800D02*
X9807316Y13241800D01*
X9807316Y13241800D02*
X9832078Y13229419D01*
X9832078Y13229419D02*
X9844459Y13217038D01*
X9844459Y13217038D02*
X9856840Y13192276D01*
X9856840Y13192276D02*
X9856840Y13155133D01*
X9856840Y13155133D02*
X9844459Y13130371D01*
X9844459Y13130371D02*
X9832078Y13117990D01*
X9832078Y13117990D02*
X9807316Y13105609D01*
X9807316Y13105609D02*
X9708268Y13105609D01*
X9943506Y13241800D02*
X10116840Y13241800D01*
X10116840Y13241800D02*
X10005411Y12981800D01*
D14*
X28215238Y15872851D02*
X28548571Y15372851D01*
X28548571Y15872851D02*
X28215238Y15372851D01*
X28715238Y15825232D02*
X28739047Y15849041D01*
X28739047Y15849041D02*
X28786666Y15872851D01*
X28786666Y15872851D02*
X28905714Y15872851D01*
X28905714Y15872851D02*
X28953333Y15849041D01*
X28953333Y15849041D02*
X28977142Y15825232D01*
X28977142Y15825232D02*
X29000952Y15777613D01*
X29000952Y15777613D02*
X29000952Y15729994D01*
X29000952Y15729994D02*
X28977142Y15658565D01*
X28977142Y15658565D02*
X28691428Y15372851D01*
X28691428Y15372851D02*
X29000952Y15372851D01*
X1464286Y31034756D02*
X1297619Y31034756D01*
X1297619Y30772851D02*
X1297619Y31272851D01*
X1297619Y31272851D02*
X1535714Y31272851D01*
X1726190Y30772851D02*
X1726190Y31272851D01*
X1964285Y30772851D02*
X1964285Y31272851D01*
X1964285Y31272851D02*
X2083333Y31272851D01*
X2083333Y31272851D02*
X2154761Y31249041D01*
X2154761Y31249041D02*
X2202380Y31201422D01*
X2202380Y31201422D02*
X2226190Y31153803D01*
X2226190Y31153803D02*
X2249999Y31058565D01*
X2249999Y31058565D02*
X2249999Y30987137D01*
X2249999Y30987137D02*
X2226190Y30891899D01*
X2226190Y30891899D02*
X2202380Y30844280D01*
X2202380Y30844280D02*
X2154761Y30796660D01*
X2154761Y30796660D02*
X2083333Y30772851D01*
X2083333Y30772851D02*
X1964285Y30772851D01*
X2726190Y30772851D02*
X2440476Y30772851D01*
X2583333Y30772851D02*
X2583333Y31272851D01*
X2583333Y31272851D02*
X2535714Y31201422D01*
X2535714Y31201422D02*
X2488095Y31153803D01*
X2488095Y31153803D02*
X2440476Y31129994D01*
X45464286Y31034756D02*
X45297619Y31034756D01*
X45297619Y30772851D02*
X45297619Y31272851D01*
X45297619Y31272851D02*
X45535714Y31272851D01*
X45726190Y30772851D02*
X45726190Y31272851D01*
X45964285Y30772851D02*
X45964285Y31272851D01*
X45964285Y31272851D02*
X46083333Y31272851D01*
X46083333Y31272851D02*
X46154761Y31249041D01*
X46154761Y31249041D02*
X46202380Y31201422D01*
X46202380Y31201422D02*
X46226190Y31153803D01*
X46226190Y31153803D02*
X46249999Y31058565D01*
X46249999Y31058565D02*
X46249999Y30987137D01*
X46249999Y30987137D02*
X46226190Y30891899D01*
X46226190Y30891899D02*
X46202380Y30844280D01*
X46202380Y30844280D02*
X46154761Y30796660D01*
X46154761Y30796660D02*
X46083333Y30772851D01*
X46083333Y30772851D02*
X45964285Y30772851D01*
X46440476Y31225232D02*
X46464285Y31249041D01*
X46464285Y31249041D02*
X46511904Y31272851D01*
X46511904Y31272851D02*
X46630952Y31272851D01*
X46630952Y31272851D02*
X46678571Y31249041D01*
X46678571Y31249041D02*
X46702380Y31225232D01*
X46702380Y31225232D02*
X46726190Y31177613D01*
X46726190Y31177613D02*
X46726190Y31129994D01*
X46726190Y31129994D02*
X46702380Y31058565D01*
X46702380Y31058565D02*
X46416666Y30772851D01*
X46416666Y30772851D02*
X46726190Y30772851D01*
D11*
X11900476Y12986426D02*
X11900476Y13236426D01*
X11900476Y13236426D02*
X11960000Y13236426D01*
X11960000Y13236426D02*
X11995714Y13224521D01*
X11995714Y13224521D02*
X12019524Y13200711D01*
X12019524Y13200711D02*
X12031429Y13176902D01*
X12031429Y13176902D02*
X12043333Y13129283D01*
X12043333Y13129283D02*
X12043333Y13093569D01*
X12043333Y13093569D02*
X12031429Y13045950D01*
X12031429Y13045950D02*
X12019524Y13022140D01*
X12019524Y13022140D02*
X11995714Y12998330D01*
X11995714Y12998330D02*
X11960000Y12986426D01*
X11960000Y12986426D02*
X11900476Y12986426D01*
X12126667Y13236426D02*
X12281429Y13236426D01*
X12281429Y13236426D02*
X12198095Y13141188D01*
X12198095Y13141188D02*
X12233810Y13141188D01*
X12233810Y13141188D02*
X12257619Y13129283D01*
X12257619Y13129283D02*
X12269524Y13117378D01*
X12269524Y13117378D02*
X12281429Y13093569D01*
X12281429Y13093569D02*
X12281429Y13034045D01*
X12281429Y13034045D02*
X12269524Y13010235D01*
X12269524Y13010235D02*
X12257619Y12998330D01*
X12257619Y12998330D02*
X12233810Y12986426D01*
X12233810Y12986426D02*
X12162381Y12986426D01*
X12162381Y12986426D02*
X12138572Y12998330D01*
X12138572Y12998330D02*
X12126667Y13010235D01*
X27178333Y28310235D02*
X27166429Y28298330D01*
X27166429Y28298330D02*
X27130714Y28286426D01*
X27130714Y28286426D02*
X27106905Y28286426D01*
X27106905Y28286426D02*
X27071191Y28298330D01*
X27071191Y28298330D02*
X27047381Y28322140D01*
X27047381Y28322140D02*
X27035476Y28345950D01*
X27035476Y28345950D02*
X27023572Y28393569D01*
X27023572Y28393569D02*
X27023572Y28429283D01*
X27023572Y28429283D02*
X27035476Y28476902D01*
X27035476Y28476902D02*
X27047381Y28500711D01*
X27047381Y28500711D02*
X27071191Y28524521D01*
X27071191Y28524521D02*
X27106905Y28536426D01*
X27106905Y28536426D02*
X27130714Y28536426D01*
X27130714Y28536426D02*
X27166429Y28524521D01*
X27166429Y28524521D02*
X27178333Y28512616D01*
X27297381Y28286426D02*
X27345000Y28286426D01*
X27345000Y28286426D02*
X27368810Y28298330D01*
X27368810Y28298330D02*
X27380714Y28310235D01*
X27380714Y28310235D02*
X27404524Y28345950D01*
X27404524Y28345950D02*
X27416429Y28393569D01*
X27416429Y28393569D02*
X27416429Y28488807D01*
X27416429Y28488807D02*
X27404524Y28512616D01*
X27404524Y28512616D02*
X27392619Y28524521D01*
X27392619Y28524521D02*
X27368810Y28536426D01*
X27368810Y28536426D02*
X27321191Y28536426D01*
X27321191Y28536426D02*
X27297381Y28524521D01*
X27297381Y28524521D02*
X27285476Y28512616D01*
X27285476Y28512616D02*
X27273572Y28488807D01*
X27273572Y28488807D02*
X27273572Y28429283D01*
X27273572Y28429283D02*
X27285476Y28405473D01*
X27285476Y28405473D02*
X27297381Y28393569D01*
X27297381Y28393569D02*
X27321191Y28381664D01*
X27321191Y28381664D02*
X27368810Y28381664D01*
X27368810Y28381664D02*
X27392619Y28393569D01*
X27392619Y28393569D02*
X27404524Y28405473D01*
X27404524Y28405473D02*
X27416429Y28429283D01*
D12*
X26553333Y29556168D02*
X26534285Y29537120D01*
X26534285Y29537120D02*
X26477143Y29518073D01*
X26477143Y29518073D02*
X26439047Y29518073D01*
X26439047Y29518073D02*
X26381904Y29537120D01*
X26381904Y29537120D02*
X26343809Y29575216D01*
X26343809Y29575216D02*
X26324762Y29613311D01*
X26324762Y29613311D02*
X26305714Y29689501D01*
X26305714Y29689501D02*
X26305714Y29746644D01*
X26305714Y29746644D02*
X26324762Y29822835D01*
X26324762Y29822835D02*
X26343809Y29860930D01*
X26343809Y29860930D02*
X26381904Y29899025D01*
X26381904Y29899025D02*
X26439047Y29918073D01*
X26439047Y29918073D02*
X26477143Y29918073D01*
X26477143Y29918073D02*
X26534285Y29899025D01*
X26534285Y29899025D02*
X26553333Y29879978D01*
X26781904Y29746644D02*
X26743809Y29765692D01*
X26743809Y29765692D02*
X26724762Y29784740D01*
X26724762Y29784740D02*
X26705714Y29822835D01*
X26705714Y29822835D02*
X26705714Y29841882D01*
X26705714Y29841882D02*
X26724762Y29879978D01*
X26724762Y29879978D02*
X26743809Y29899025D01*
X26743809Y29899025D02*
X26781904Y29918073D01*
X26781904Y29918073D02*
X26858095Y29918073D01*
X26858095Y29918073D02*
X26896190Y29899025D01*
X26896190Y29899025D02*
X26915238Y29879978D01*
X26915238Y29879978D02*
X26934285Y29841882D01*
X26934285Y29841882D02*
X26934285Y29822835D01*
X26934285Y29822835D02*
X26915238Y29784740D01*
X26915238Y29784740D02*
X26896190Y29765692D01*
X26896190Y29765692D02*
X26858095Y29746644D01*
X26858095Y29746644D02*
X26781904Y29746644D01*
X26781904Y29746644D02*
X26743809Y29727597D01*
X26743809Y29727597D02*
X26724762Y29708549D01*
X26724762Y29708549D02*
X26705714Y29670454D01*
X26705714Y29670454D02*
X26705714Y29594263D01*
X26705714Y29594263D02*
X26724762Y29556168D01*
X26724762Y29556168D02*
X26743809Y29537120D01*
X26743809Y29537120D02*
X26781904Y29518073D01*
X26781904Y29518073D02*
X26858095Y29518073D01*
X26858095Y29518073D02*
X26896190Y29537120D01*
X26896190Y29537120D02*
X26915238Y29556168D01*
X26915238Y29556168D02*
X26934285Y29594263D01*
X26934285Y29594263D02*
X26934285Y29670454D01*
X26934285Y29670454D02*
X26915238Y29708549D01*
X26915238Y29708549D02*
X26896190Y29727597D01*
X26896190Y29727597D02*
X26858095Y29746644D01*
D10*
X23417200Y4266668D02*
X23464819Y4409525D01*
X23464819Y4409525D02*
X23464819Y4647620D01*
X23464819Y4647620D02*
X23417200Y4742858D01*
X23417200Y4742858D02*
X23369580Y4790477D01*
X23369580Y4790477D02*
X23274342Y4838096D01*
X23274342Y4838096D02*
X23179104Y4838096D01*
X23179104Y4838096D02*
X23083866Y4790477D01*
X23083866Y4790477D02*
X23036247Y4742858D01*
X23036247Y4742858D02*
X22988628Y4647620D01*
X22988628Y4647620D02*
X22941009Y4457144D01*
X22941009Y4457144D02*
X22893390Y4361906D01*
X22893390Y4361906D02*
X22845771Y4314287D01*
X22845771Y4314287D02*
X22750533Y4266668D01*
X22750533Y4266668D02*
X22655295Y4266668D01*
X22655295Y4266668D02*
X22560057Y4314287D01*
X22560057Y4314287D02*
X22512438Y4361906D01*
X22512438Y4361906D02*
X22464819Y4457144D01*
X22464819Y4457144D02*
X22464819Y4695239D01*
X22464819Y4695239D02*
X22512438Y4838096D01*
X22464819Y5171430D02*
X23464819Y5409525D01*
X23464819Y5409525D02*
X22750533Y5600001D01*
X22750533Y5600001D02*
X23464819Y5790477D01*
X23464819Y5790477D02*
X22464819Y6028572D01*
X23464819Y6933334D02*
X23464819Y6361906D01*
X23464819Y6647620D02*
X22464819Y6647620D01*
X22464819Y6647620D02*
X22607676Y6552382D01*
X22607676Y6552382D02*
X22702914Y6457144D01*
X22702914Y6457144D02*
X22750533Y6361906D01*
D11*
X4756667Y17781800D02*
X4670000Y17905609D01*
X4608095Y17781800D02*
X4608095Y18041800D01*
X4608095Y18041800D02*
X4707143Y18041800D01*
X4707143Y18041800D02*
X4731905Y18029419D01*
X4731905Y18029419D02*
X4744286Y18017038D01*
X4744286Y18017038D02*
X4756667Y17992276D01*
X4756667Y17992276D02*
X4756667Y17955133D01*
X4756667Y17955133D02*
X4744286Y17930371D01*
X4744286Y17930371D02*
X4731905Y17917990D01*
X4731905Y17917990D02*
X4707143Y17905609D01*
X4707143Y17905609D02*
X4608095Y17905609D01*
X4880476Y17781800D02*
X4930000Y17781800D01*
X4930000Y17781800D02*
X4954762Y17794180D01*
X4954762Y17794180D02*
X4967143Y17806561D01*
X4967143Y17806561D02*
X4991905Y17843704D01*
X4991905Y17843704D02*
X5004286Y17893228D01*
X5004286Y17893228D02*
X5004286Y17992276D01*
X5004286Y17992276D02*
X4991905Y18017038D01*
X4991905Y18017038D02*
X4979524Y18029419D01*
X4979524Y18029419D02*
X4954762Y18041800D01*
X4954762Y18041800D02*
X4905238Y18041800D01*
X4905238Y18041800D02*
X4880476Y18029419D01*
X4880476Y18029419D02*
X4868095Y18017038D01*
X4868095Y18017038D02*
X4855714Y17992276D01*
X4855714Y17992276D02*
X4855714Y17930371D01*
X4855714Y17930371D02*
X4868095Y17905609D01*
X4868095Y17905609D02*
X4880476Y17893228D01*
X4880476Y17893228D02*
X4905238Y17880847D01*
X4905238Y17880847D02*
X4954762Y17880847D01*
X4954762Y17880847D02*
X4979524Y17893228D01*
X4979524Y17893228D02*
X4991905Y17905609D01*
X4991905Y17905609D02*
X5004286Y17930371D01*
D10*
X7145180Y8128434D02*
X6430895Y8128434D01*
X6430895Y8128434D02*
X6288038Y8176053D01*
X6288038Y8176053D02*
X6192800Y8271291D01*
X6192800Y8271291D02*
X6145180Y8414148D01*
X6145180Y8414148D02*
X6145180Y8509386D01*
X6811847Y7223672D02*
X6145180Y7223672D01*
X7192800Y7461767D02*
X6478514Y7699862D01*
X6478514Y7699862D02*
X6478514Y7080815D01*
D13*
X11389965Y7251429D02*
X11972822Y7251429D01*
X11972822Y7251429D02*
X12041394Y7285715D01*
X12041394Y7285715D02*
X12075680Y7320000D01*
X12075680Y7320000D02*
X12109965Y7388572D01*
X12109965Y7388572D02*
X12109965Y7525715D01*
X12109965Y7525715D02*
X12075680Y7594286D01*
X12075680Y7594286D02*
X12041394Y7628572D01*
X12041394Y7628572D02*
X11972822Y7662858D01*
X11972822Y7662858D02*
X11389965Y7662858D01*
X11389965Y7937144D02*
X11389965Y8382858D01*
X11389965Y8382858D02*
X11664251Y8142858D01*
X11664251Y8142858D02*
X11664251Y8245715D01*
X11664251Y8245715D02*
X11698537Y8314286D01*
X11698537Y8314286D02*
X11732822Y8348572D01*
X11732822Y8348572D02*
X11801394Y8382858D01*
X11801394Y8382858D02*
X11972822Y8382858D01*
X11972822Y8382858D02*
X12041394Y8348572D01*
X12041394Y8348572D02*
X12075680Y8314286D01*
X12075680Y8314286D02*
X12109965Y8245715D01*
X12109965Y8245715D02*
X12109965Y8040001D01*
X12109965Y8040001D02*
X12075680Y7971429D01*
X12075680Y7971429D02*
X12041394Y7937144D01*
D14*
X34895238Y28922851D02*
X35228571Y28422851D01*
X35228571Y28922851D02*
X34895238Y28422851D01*
X35680952Y28422851D02*
X35395238Y28422851D01*
X35538095Y28422851D02*
X35538095Y28922851D01*
X35538095Y28922851D02*
X35490476Y28851422D01*
X35490476Y28851422D02*
X35442857Y28803803D01*
X35442857Y28803803D02*
X35395238Y28779994D01*
D11*
X35432857Y19881800D02*
X35346190Y20005609D01*
X35284285Y19881800D02*
X35284285Y20141800D01*
X35284285Y20141800D02*
X35383333Y20141800D01*
X35383333Y20141800D02*
X35408095Y20129419D01*
X35408095Y20129419D02*
X35420476Y20117038D01*
X35420476Y20117038D02*
X35432857Y20092276D01*
X35432857Y20092276D02*
X35432857Y20055133D01*
X35432857Y20055133D02*
X35420476Y20030371D01*
X35420476Y20030371D02*
X35408095Y20017990D01*
X35408095Y20017990D02*
X35383333Y20005609D01*
X35383333Y20005609D02*
X35284285Y20005609D01*
X35680476Y19881800D02*
X35531904Y19881800D01*
X35606190Y19881800D02*
X35606190Y20141800D01*
X35606190Y20141800D02*
X35581428Y20104657D01*
X35581428Y20104657D02*
X35556666Y20079895D01*
X35556666Y20079895D02*
X35531904Y20067514D01*
X35767142Y20141800D02*
X35928095Y20141800D01*
X35928095Y20141800D02*
X35841428Y20042752D01*
X35841428Y20042752D02*
X35878571Y20042752D01*
X35878571Y20042752D02*
X35903333Y20030371D01*
X35903333Y20030371D02*
X35915714Y20017990D01*
X35915714Y20017990D02*
X35928095Y19993228D01*
X35928095Y19993228D02*
X35928095Y19931323D01*
X35928095Y19931323D02*
X35915714Y19906561D01*
X35915714Y19906561D02*
X35903333Y19894180D01*
X35903333Y19894180D02*
X35878571Y19881800D01*
X35878571Y19881800D02*
X35804285Y19881800D01*
X35804285Y19881800D02*
X35779523Y19894180D01*
X35779523Y19894180D02*
X35767142Y19906561D01*
D14*
X45464286Y2034756D02*
X45297619Y2034756D01*
X45297619Y1772851D02*
X45297619Y2272851D01*
X45297619Y2272851D02*
X45535714Y2272851D01*
X45726190Y1772851D02*
X45726190Y2272851D01*
X45964285Y1772851D02*
X45964285Y2272851D01*
X45964285Y2272851D02*
X46083333Y2272851D01*
X46083333Y2272851D02*
X46154761Y2249041D01*
X46154761Y2249041D02*
X46202380Y2201422D01*
X46202380Y2201422D02*
X46226190Y2153803D01*
X46226190Y2153803D02*
X46249999Y2058565D01*
X46249999Y2058565D02*
X46249999Y1987137D01*
X46249999Y1987137D02*
X46226190Y1891899D01*
X46226190Y1891899D02*
X46202380Y1844280D01*
X46202380Y1844280D02*
X46154761Y1796660D01*
X46154761Y1796660D02*
X46083333Y1772851D01*
X46083333Y1772851D02*
X45964285Y1772851D01*
X46416666Y2272851D02*
X46726190Y2272851D01*
X46726190Y2272851D02*
X46559523Y2082375D01*
X46559523Y2082375D02*
X46630952Y2082375D01*
X46630952Y2082375D02*
X46678571Y2058565D01*
X46678571Y2058565D02*
X46702380Y2034756D01*
X46702380Y2034756D02*
X46726190Y1987137D01*
X46726190Y1987137D02*
X46726190Y1868089D01*
X46726190Y1868089D02*
X46702380Y1820470D01*
X46702380Y1820470D02*
X46678571Y1796660D01*
X46678571Y1796660D02*
X46630952Y1772851D01*
X46630952Y1772851D02*
X46488095Y1772851D01*
X46488095Y1772851D02*
X46440476Y1796660D01*
X46440476Y1796660D02*
X46416666Y1820470D01*
D10*
X29854819Y21938096D02*
X30664342Y21938096D01*
X30664342Y21938096D02*
X30759580Y21985715D01*
X30759580Y21985715D02*
X30807200Y22033334D01*
X30807200Y22033334D02*
X30854819Y22128572D01*
X30854819Y22128572D02*
X30854819Y22319048D01*
X30854819Y22319048D02*
X30807200Y22414286D01*
X30807200Y22414286D02*
X30759580Y22461905D01*
X30759580Y22461905D02*
X30664342Y22509524D01*
X30664342Y22509524D02*
X29854819Y22509524D01*
X30188152Y23414286D02*
X30854819Y23414286D01*
X29807200Y23176191D02*
X30521485Y22938096D01*
X30521485Y22938096D02*
X30521485Y23557143D01*
%TO.C,J2*%
D15*
X-226449Y28070400D02*
X-226449Y19129600D01*
X-226449Y19129600D02*
X6529951Y19129600D01*
X6529951Y28070400D02*
X-226449Y28070400D01*
X6529951Y23600000D02*
X6529951Y23600000D01*
X6529951Y23600000D02*
X6529951Y23600000D01*
X6529951Y23600000D02*
X6529951Y23600000D01*
X6529951Y23600000D02*
X6529951Y23600000D01*
X6529951Y19129600D02*
X6529951Y28070400D01*
%TO.C,D2*%
D16*
X31850000Y14250000D02*
X32750000Y14250000D01*
X31850000Y12950000D02*
X31850000Y14250000D01*
X32100000Y13700000D02*
X32300000Y13400000D01*
X32300000Y13700000D02*
X32300000Y13850000D01*
X32300000Y13400000D02*
X32300000Y13250000D01*
X32300000Y13400000D02*
X32500000Y13700000D01*
X32500000Y13700000D02*
X32100000Y13700000D01*
X32500000Y13400000D02*
X32100000Y13400000D01*
X32750000Y14250000D02*
X32750000Y12950000D01*
X32750000Y12950000D02*
X31850000Y12950000D01*
%TO.C,R16*%
X37075000Y20270000D02*
X38125000Y20270000D01*
X38125000Y19730000D01*
X37075000Y19730000D01*
X37075000Y20270000D01*
%TO.C,C19*%
X10400000Y14900000D02*
X12000000Y14900000D01*
X12000000Y14100000D01*
X10400000Y14100000D01*
X10400000Y14900000D01*
%TO.C,C4*%
X34850000Y22720000D02*
X35350000Y22720000D01*
X35350000Y21720000D01*
X34850000Y21720000D01*
X34850000Y22720000D01*
%TO.C,J1*%
D15*
X44000000Y25400000D02*
X44000000Y24400000D01*
X44000000Y25400000D02*
X44000000Y22400000D01*
X44000000Y23400000D02*
X44000000Y22400000D01*
X44000000Y22400000D02*
X47000000Y22400000D01*
X44000000Y22400000D02*
X47000000Y22400000D01*
X47000000Y25400000D02*
X44000000Y25400000D01*
X47000000Y25400000D02*
X44000000Y25400000D01*
X47000000Y24400000D02*
X47000000Y25400000D01*
X47000000Y22400000D02*
X47000000Y25400000D01*
X47000000Y22400000D02*
X47000000Y23400000D01*
X44687200Y23900000D02*
G75*
G02*
X44534800Y23900000I-76200J0D01*
G01*
X44534800Y23900000D02*
G75*
G02*
X44687200Y23900000I76200J0D01*
G01*
%TO.C,R10*%
D16*
X14557600Y9041400D02*
X15607600Y9041400D01*
X15607600Y8501400D01*
X14557600Y8501400D01*
X14557600Y9041400D01*
%TO.C,C20*%
X18380000Y28550000D02*
X19380000Y28550000D01*
X19380000Y28050000D01*
X18380000Y28050000D01*
X18380000Y28550000D01*
%TO.C,U1*%
X12350000Y17762500D02*
X12350000Y16562500D01*
X9450000Y16562500D01*
X9450000Y18162500D01*
X11950000Y18162500D01*
X12350000Y17762500D01*
%TO.C,U2*%
X10400000Y25050000D02*
X11600000Y25050000D01*
X11600000Y22150000D01*
X10000000Y22150000D01*
X10000000Y24650000D01*
X10400000Y25050000D01*
%TO.C,C18*%
X10400000Y20700000D02*
X12000000Y20700000D01*
X12000000Y19900000D01*
X10400000Y19900000D01*
X10400000Y20700000D01*
%TO.C,C15*%
X27120000Y17550000D02*
X28120000Y17550000D01*
X28120000Y17050000D01*
X27120000Y17050000D01*
X27120000Y17550000D01*
%TO.C,R2*%
X28995000Y17570000D02*
X30045000Y17570000D01*
X30045000Y17030000D01*
X28995000Y17030000D01*
X28995000Y17570000D01*
%TO.C,R11*%
X14557600Y7136400D02*
X15607600Y7136400D01*
X15607600Y6596400D01*
X14557600Y6596400D01*
X14557600Y7136400D01*
%TO.C,C2*%
X24200000Y24250000D02*
X25200000Y24250000D01*
X25200000Y23750000D01*
X24200000Y23750000D01*
X24200000Y24250000D01*
%TO.C,SW2*%
D15*
X29350000Y7100000D02*
X29350000Y4100000D01*
X29350000Y4100000D02*
X31850000Y4100000D01*
X30600000Y7300000D02*
X30600000Y7300000D01*
X30600000Y7300000D02*
X30600000Y7100000D01*
X30600000Y7100000D02*
X30600000Y7300000D01*
X30600000Y7100000D02*
X30600000Y7100000D01*
X30600000Y4100000D02*
X30600000Y4100000D01*
X30600000Y4100000D02*
X30600000Y3900000D01*
X30600000Y3900000D02*
X30600000Y4100000D01*
X30600000Y3900000D02*
X30600000Y3900000D01*
X31850000Y7100000D02*
X29350000Y7100000D01*
X31850000Y4100000D02*
X31850000Y7100000D01*
D17*
X28263200Y4100000D02*
G75*
G02*
X27856800Y4100000I-203200J0D01*
G01*
X27856800Y4100000D02*
G75*
G02*
X28263200Y4100000I203200J0D01*
G01*
D15*
X31350000Y5600000D02*
G75*
G02*
X29850000Y5600000I-750000J0D01*
G01*
X29850000Y5600000D02*
G75*
G02*
X31350000Y5600000I750000J0D01*
G01*
%TO.C,C13*%
D16*
X39450000Y23900000D02*
X39950000Y23900000D01*
X39950000Y22900000D01*
X39450000Y22900000D01*
X39450000Y23900000D01*
%TO.C,R6*%
X31975000Y15770000D02*
X33025000Y15770000D01*
X33025000Y15230000D01*
X31975000Y15230000D01*
X31975000Y15770000D01*
%TO.C,C6*%
X25450000Y21000000D02*
X25950000Y21000000D01*
X25950000Y20000000D01*
X25450000Y20000000D01*
X25450000Y21000000D01*
%TO.C,Q1*%
X38275000Y19050000D02*
X39250000Y19050000D01*
X39250000Y16150000D01*
X37950000Y16150000D01*
X37950000Y18725000D01*
X38275000Y19050000D01*
%TO.C,C12*%
X36450000Y23900000D02*
X36950000Y23900000D01*
X36950000Y22900000D01*
X36450000Y22900000D01*
X36450000Y23900000D01*
%TO.C,R8*%
X4275000Y29570000D02*
X5325000Y29570000D01*
X5325000Y29030000D01*
X4275000Y29030000D01*
X4275000Y29570000D01*
%TO.C,C1*%
X23800000Y18800000D02*
X24600000Y18800000D01*
X24600000Y17200000D01*
X23800000Y17200000D01*
X23800000Y18800000D01*
%TO.C,L3*%
X37700000Y24150000D02*
X38700000Y24150000D01*
X38700000Y23650000D01*
X37700000Y23650000D01*
X37700000Y24150000D01*
%TO.C,C11*%
X30125000Y28100000D02*
X31725000Y28100000D01*
X31725000Y27300000D01*
X30125000Y27300000D01*
X30125000Y28100000D01*
%TO.C,C14*%
X30450000Y16200000D02*
X30950000Y16200000D01*
X30950000Y15200000D01*
X30450000Y15200000D01*
X30450000Y16200000D01*
%TO.C,C17*%
X32000000Y16750000D02*
X33000000Y16750000D01*
X33000000Y16250000D01*
X32000000Y16250000D01*
X32000000Y16750000D01*
%TO.C,C5*%
X26720000Y27650000D02*
X27720000Y27650000D01*
X27720000Y27150000D01*
X26720000Y27150000D01*
X26720000Y27650000D01*
%TO.C,L1*%
X28650000Y28413600D02*
X29150000Y28413600D01*
X29150000Y27413600D01*
X28650000Y27413600D01*
X28650000Y28413600D01*
%TO.C,C3*%
X32380000Y17850000D02*
X33380000Y17850000D01*
X33380000Y17350000D01*
X32380000Y17350000D01*
X32380000Y17850000D01*
%TO.C,C10*%
X34950000Y25900000D02*
X35450000Y25900000D01*
X35450000Y24900000D01*
X34950000Y24900000D01*
X34950000Y25900000D01*
%TO.C,L2*%
X29137500Y30278600D02*
X31137500Y30278600D01*
X31137500Y29378600D01*
X29137500Y29378600D01*
X29137500Y30278600D01*
%TO.C,R1*%
X37130000Y29175000D02*
X37670000Y29175000D01*
X37670000Y28125000D01*
X37130000Y28125000D01*
X37130000Y29175000D01*
%TO.C,C21*%
X8650000Y10780000D02*
X9150000Y10780000D01*
X9150000Y9780000D01*
X8650000Y9780000D01*
X8650000Y10780000D01*
%TO.C,D1*%
X43400000Y17750000D02*
X43400000Y18250000D01*
X43500000Y17750000D02*
X43500000Y18250000D01*
X43300000Y18250000D02*
X44300000Y18250000D01*
X44300000Y17750000D01*
X43300000Y17750000D01*
X43300000Y18250000D01*
%TO.C,C7*%
X24450000Y21000000D02*
X24950000Y21000000D01*
X24950000Y20000000D01*
X24450000Y20000000D01*
X24450000Y21000000D01*
%TO.C,R3*%
X41175000Y18270000D02*
X42225000Y18270000D01*
X42225000Y17730000D01*
X41175000Y17730000D01*
X41175000Y18270000D01*
%TO.C,R7*%
X9375173Y13370000D02*
X10425173Y13370000D01*
X10425173Y12830000D01*
X9375173Y12830000D01*
X9375173Y13370000D01*
%TO.C,X2*%
X27620000Y15000000D02*
X27620000Y16200000D01*
X29320000Y16200000D01*
X29620000Y15900000D01*
X29620000Y15000000D01*
X27620000Y15000000D01*
%TO.C,FID1*%
X3000000Y31000000D02*
G75*
G02*
X1000000Y31000000I-1000000J0D01*
G01*
X1000000Y31000000D02*
G75*
G02*
X3000000Y31000000I1000000J0D01*
G01*
%TO.C,FID2*%
X47000000Y31000000D02*
G75*
G02*
X45000000Y31000000I-1000000J0D01*
G01*
X45000000Y31000000D02*
G75*
G02*
X47000000Y31000000I1000000J0D01*
G01*
%TO.C,D3*%
X11685000Y12850000D02*
X11685000Y13350000D01*
X11785000Y12850000D02*
X11785000Y13350000D01*
X11585000Y13350000D02*
X12585000Y13350000D01*
X12585000Y12850000D01*
X11585000Y12850000D01*
X11585000Y13350000D01*
%TO.C,C9*%
X26720000Y28650000D02*
X27720000Y28650000D01*
X27720000Y28150000D01*
X26720000Y28150000D01*
X26720000Y28650000D01*
%TO.C,C8*%
X25820000Y30100000D02*
X27420000Y30100000D01*
X27420000Y29300000D01*
X25820000Y29300000D01*
X25820000Y30100000D01*
%TO.C,SW1*%
D15*
X21760000Y7100000D02*
X21760000Y4100000D01*
X21760000Y4100000D02*
X24260000Y4100000D01*
X23010000Y7300000D02*
X23010000Y7300000D01*
X23010000Y7300000D02*
X23010000Y7100000D01*
X23010000Y7100000D02*
X23010000Y7300000D01*
X23010000Y7100000D02*
X23010000Y7100000D01*
X23010000Y4100000D02*
X23010000Y4100000D01*
X23010000Y4100000D02*
X23010000Y3900000D01*
X23010000Y3900000D02*
X23010000Y4100000D01*
X23010000Y3900000D02*
X23010000Y3900000D01*
X24260000Y7100000D02*
X21760000Y7100000D01*
X24260000Y4100000D02*
X24260000Y7100000D01*
D17*
X20673200Y4100000D02*
G75*
G02*
X20266800Y4100000I-203200J0D01*
G01*
X20266800Y4100000D02*
G75*
G02*
X20673200Y4100000I203200J0D01*
G01*
D15*
X23760000Y5600000D02*
G75*
G02*
X22260000Y5600000I-750000J0D01*
G01*
X22260000Y5600000D02*
G75*
G02*
X23760000Y5600000I750000J0D01*
G01*
%TO.C,R9*%
D16*
X4275000Y18170000D02*
X5325000Y18170000D01*
X5325000Y17630000D01*
X4275000Y17630000D01*
X4275000Y18170000D01*
%TO.C,J4*%
D15*
X355400Y12748100D02*
X355400Y2842100D01*
X355400Y2842100D02*
X7950000Y2842100D01*
X7950000Y12748100D02*
X355400Y12748100D01*
X7950000Y2842100D02*
X7950000Y12748100D01*
D18*
X8886000Y10795099D02*
G75*
G02*
X8124000Y10795099I-381000J0D01*
G01*
X8124000Y10795099D02*
G75*
G02*
X8886000Y10795099I381000J0D01*
G01*
D16*
%TO.C,U3*%
X11382600Y9250000D02*
X12582600Y9250000D01*
X12582600Y6350000D01*
X10982600Y6350000D01*
X10982600Y8850000D01*
X11382600Y9250000D01*
%TO.C,X1*%
X34300000Y27850000D02*
X34300000Y29450000D01*
X35900000Y29450000D01*
X36300000Y29050000D01*
X36300000Y27850000D01*
X34300000Y27850000D01*
%TO.C,R13*%
X35075000Y20270000D02*
X36125000Y20270000D01*
X36125000Y19730000D01*
X35075000Y19730000D01*
X35075000Y20270000D01*
%TO.C,FID3*%
X47000000Y2000000D02*
G75*
G02*
X45000000Y2000000I-1000000J0D01*
G01*
X45000000Y2000000D02*
G75*
G02*
X47000000Y2000000I1000000J0D01*
G01*
%TO.C,U4*%
X26900000Y20200000D02*
X26900000Y26200000D01*
X33900000Y26200000D01*
X33900000Y19200000D01*
X27900000Y19200000D01*
X26900000Y20200000D01*
%TD*%
M02*
