%TF.GenerationSoftware,KiCad,Pcbnew,10.0.6*%
%TF.CreationDate,2026-09-29T13:20:46+03:00*%
%TF.ProjectId,stm32-bt-board,73746d33-322d-4627-942d-626f6172642e,rev?*%
%TF.SameCoordinates,PX7641700PY7270e00*%
%TF.FileFunction,Soldermask,Top*%
%TF.FilePolarity,Negative*%
%FSLAX46Y46*%
G04 Gerber Fmt 4.6, Leading zero omitted, Abs format (unit mm)*
G04 Created by KiCad (PCBNEW 10.0.6) date 2026-09-29 13:20:46*
%MOMM*%
%LPD*%
G01*
G04 APERTURE LIST*
G04 Aperture macros list*
%AMRoundRect*
0 Rectangle with rounded corners*
0 $1 Rounding radius*
0 $2 $3 $4 $5 $6 $7 $8 $9 X,Y pos of 4 corners*
0 Add a 4 corners polygon primitive as box body*
4,1,4,$2,$3,$4,$5,$6,$7,$8,$9,$2,$3,0*
0 Add four circle primitives for the rounded corners*
1,1,$1+$1,$2,$3*
1,1,$1+$1,$4,$5*
1,1,$1+$1,$6,$7*
1,1,$1+$1,$8,$9*
0 Add four rect primitives between the rounded corners*
20,1,$1+$1,$2,$3,$4,$5,0*
20,1,$1+$1,$4,$5,$6,$7,0*
20,1,$1+$1,$6,$7,$8,$9,0*
20,1,$1+$1,$8,$9,$2,$3,0*%
G04 Aperture macros list end*
%ADD10RoundRect,0.150000X-0.200000X0.150000X-0.200000X-0.150000X0.200000X-0.150000X0.200000X0.150000X0*%
%ADD11RoundRect,0.135000X0.135000X0.185000X-0.135000X0.185000X-0.135000X-0.185000X0.135000X-0.185000X0*%
%ADD12RoundRect,0.225000X0.225000X0.250000X-0.225000X0.250000X-0.225000X-0.250000X0.225000X-0.250000X0*%
%ADD13RoundRect,0.140000X-0.170000X0.140000X-0.170000X-0.140000X0.170000X-0.140000X0.170000X0.140000X0*%
%ADD14RoundRect,0.247650X-0.273050X0.247650X-0.273050X-0.247650X0.273050X-0.247650X0.273050X0.247650X0*%
%ADD15RoundRect,0.260350X-0.844550X0.260350X-0.844550X-0.260350X0.844550X-0.260350X0.844550X0.260350X0*%
%ADD16RoundRect,0.135000X-0.135000X-0.185000X0.135000X-0.185000X0.135000X0.185000X-0.135000X0.185000X0*%
%ADD17RoundRect,0.140000X-0.140000X-0.170000X0.140000X-0.170000X0.140000X0.170000X-0.140000X0.170000X0*%
%ADD18RoundRect,0.150000X-0.150000X0.512500X-0.150000X-0.512500X0.150000X-0.512500X0.150000X0.512500X0*%
%ADD19RoundRect,0.150000X-0.512500X-0.150000X0.512500X-0.150000X0.512500X0.150000X-0.512500X0.150000X0*%
%ADD20RoundRect,0.068750X-0.068750X-0.281250X0.068750X-0.281250X0.068750X0.281250X-0.068750X0.281250X0*%
%ADD21RoundRect,0.061250X-0.163750X-0.061250X0.163750X-0.061250X0.163750X0.061250X-0.163750X0.061250X0*%
%ADD22RoundRect,0.140000X0.140000X0.170000X-0.140000X0.170000X-0.140000X-0.170000X0.140000X-0.170000X0*%
%ADD23RoundRect,0.200000X0.650000X-0.200000X0.650000X0.200000X-0.650000X0.200000X-0.650000X-0.200000X0*%
%ADD24RoundRect,0.152400X-0.419100X0.152400X-0.419100X-0.152400X0.419100X-0.152400X0.419100X0.152400X0*%
%ADD25RoundRect,0.076200X-0.495300X0.076200X-0.495300X-0.076200X0.495300X-0.076200X0.495300X0.076200X0*%
%ADD26O,1.983740X1.089660*%
%ADD27O,2.430780X1.089660*%
%ADD28RoundRect,0.140000X0.170000X-0.140000X0.170000X0.140000X-0.170000X0.140000X-0.170000X-0.140000X0*%
%ADD29RoundRect,0.150000X-0.587500X-0.150000X0.587500X-0.150000X0.587500X0.150000X-0.587500X0.150000X0*%
%ADD30C,2.374900*%
%ADD31C,0.990600*%
%ADD32C,0.787400*%
%ADD33RoundRect,0.225000X-0.250000X0.225000X-0.250000X-0.225000X0.250000X-0.225000X0.250000X0.225000X0*%
%ADD34RoundRect,0.147500X-0.147500X-0.172500X0.147500X-0.172500X0.147500X0.172500X-0.147500X0.172500X0*%
%ADD35RoundRect,0.225000X-0.225000X-0.250000X0.225000X-0.250000X0.225000X0.250000X-0.225000X0.250000X0*%
%ADD36RoundRect,0.147500X0.172500X-0.147500X0.172500X0.147500X-0.172500X0.147500X-0.172500X-0.147500X0*%
%ADD37RoundRect,0.218750X-0.218750X-0.381250X0.218750X-0.381250X0.218750X0.381250X-0.218750X0.381250X0*%
%ADD38RoundRect,0.135000X0.185000X-0.135000X0.185000X0.135000X-0.185000X0.135000X-0.185000X-0.135000X0*%
%ADD39RoundRect,0.150000X0.150000X0.400000X-0.150000X0.400000X-0.150000X-0.400000X0.150000X-0.400000X0*%
%ADD40C,2.000000*%
%ADD41C,1.270000*%
%ADD42RoundRect,0.200000X0.250000X0.200000X-0.250000X0.200000X-0.250000X-0.200000X0.250000X-0.200000X0*%
%ADD43RoundRect,0.062500X0.062500X-0.375000X0.062500X0.375000X-0.062500X0.375000X-0.062500X-0.375000X0*%
%ADD44RoundRect,0.062500X0.375000X-0.062500X0.375000X0.062500X-0.375000X0.062500X-0.375000X-0.062500X0*%
%ADD45R,5.600000X5.600000*%
G04 APERTURE END LIST*
D10*
%TO.C,D2*%
X32300000Y12900000D03*
X32300000Y14300000D03*
%TD*%
D11*
%TO.C,R16*%
X38110000Y20000000D03*
X37090000Y20000000D03*
%TD*%
D12*
%TO.C,C19*%
X11975000Y14500000D03*
X10425000Y14500000D03*
%TD*%
D13*
%TO.C,C4*%
X35100000Y22700000D03*
X35100000Y21740000D03*
%TD*%
D14*
%TO.C,J1*%
X43979200Y23900000D03*
D15*
X45500000Y25379300D03*
X45500000Y22420700D03*
%TD*%
D16*
%TO.C,R10*%
X14572600Y8771400D03*
X15592600Y8771400D03*
%TD*%
D17*
%TO.C,C20*%
X18400000Y28300000D03*
X19360000Y28300000D03*
%TD*%
D18*
%TO.C,U1*%
X11850000Y18500000D03*
X10900000Y18500000D03*
X9950000Y18500000D03*
X9950000Y16225000D03*
X11850000Y16225000D03*
%TD*%
D19*
%TO.C,U2*%
X9662500Y24550000D03*
X9662500Y23600000D03*
X9662500Y22650000D03*
X11937500Y22650000D03*
X11937500Y23600000D03*
X11937500Y24550000D03*
%TD*%
D12*
%TO.C,C18*%
X11975000Y20300000D03*
X10425000Y20300000D03*
%TD*%
D20*
%TO.C,FL1*%
X41087500Y23900000D03*
D21*
X41700000Y23672500D03*
D20*
X42312500Y23900000D03*
D21*
X41700000Y24127500D03*
%TD*%
D22*
%TO.C,C15*%
X28100000Y17300000D03*
X27140000Y17300000D03*
%TD*%
D16*
%TO.C,R2*%
X29010000Y17300000D03*
X30030000Y17300000D03*
%TD*%
%TO.C,R11*%
X14572600Y6866400D03*
X15592600Y6866400D03*
%TD*%
D22*
%TO.C,C2*%
X25180000Y24000000D03*
X24220000Y24000000D03*
%TD*%
D23*
%TO.C,SW2*%
X30600000Y3899998D03*
X30600000Y7300002D03*
%TD*%
D13*
%TO.C,C13*%
X39700000Y23880000D03*
X39700000Y22920000D03*
%TD*%
D24*
%TO.C,J2*%
X6454950Y26800001D03*
X6454950Y26000000D03*
D25*
X6454950Y24850000D03*
X6454950Y23850000D03*
X6454950Y23350000D03*
X6454950Y22350000D03*
D24*
X6454950Y21200000D03*
X6454950Y20400001D03*
X6454950Y20400001D03*
X6454950Y21200000D03*
D25*
X6454950Y21849940D03*
X6454950Y22849941D03*
X6454950Y24349940D03*
X6454950Y25349941D03*
D24*
X6454950Y26000000D03*
X6454950Y26800001D03*
D26*
X5879951Y27920000D03*
D27*
X1879950Y27920000D03*
D26*
X5879951Y19280000D03*
D27*
X1879950Y19280000D03*
%TD*%
D11*
%TO.C,R6*%
X33010000Y15500000D03*
X31990000Y15500000D03*
%TD*%
D28*
%TO.C,C6*%
X25700000Y20020000D03*
X25700000Y20980000D03*
%TD*%
D29*
%TO.C,Q1*%
X37662500Y18550000D03*
X37662500Y16650000D03*
X39537500Y17600000D03*
%TD*%
D13*
%TO.C,C12*%
X36700000Y23880000D03*
X36700000Y22920000D03*
%TD*%
D16*
%TO.C,R8*%
X4290000Y29300000D03*
X5310000Y29300000D03*
%TD*%
D30*
%TO.C,J3*%
X21940000Y25940000D03*
D31*
X19400000Y25940000D03*
D30*
X16860000Y25940000D03*
X21940000Y22765000D03*
X16860000Y22765000D03*
D31*
X20416000Y20860000D03*
X18384000Y20860000D03*
D32*
X18765000Y24670000D03*
X20035000Y24670000D03*
X18765000Y23400000D03*
X20035000Y23400000D03*
X18765000Y22130000D03*
X20035000Y22130000D03*
%TD*%
D33*
%TO.C,C1*%
X24200000Y18775000D03*
X24200000Y17225000D03*
%TD*%
D34*
%TO.C,L3*%
X37715000Y23900000D03*
X38685000Y23900000D03*
%TD*%
D35*
%TO.C,C11*%
X30150000Y27700000D03*
X31700000Y27700000D03*
%TD*%
D13*
%TO.C,C14*%
X30700000Y16180000D03*
X30700000Y15220000D03*
%TD*%
D17*
%TO.C,C17*%
X32020000Y16500000D03*
X32980000Y16500000D03*
%TD*%
D22*
%TO.C,C5*%
X27700000Y27400000D03*
X26740000Y27400000D03*
%TD*%
D36*
%TO.C,L1*%
X28900000Y27428600D03*
X28900000Y28398600D03*
%TD*%
D17*
%TO.C,C3*%
X32400000Y17600000D03*
X33360000Y17600000D03*
%TD*%
D13*
%TO.C,C10*%
X35200000Y25880000D03*
X35200000Y24920000D03*
%TD*%
D37*
%TO.C,L2*%
X29075000Y29828600D03*
X31200000Y29828600D03*
%TD*%
D38*
%TO.C,R1*%
X37400000Y28140000D03*
X37400000Y29160000D03*
%TD*%
D13*
%TO.C,C21*%
X8900000Y10760000D03*
X8900000Y9800000D03*
%TD*%
D34*
%TO.C,D1*%
X43315000Y18000000D03*
X44285000Y18000000D03*
%TD*%
D28*
%TO.C,C7*%
X24700000Y20020000D03*
X24700000Y20980000D03*
%TD*%
D11*
%TO.C,R3*%
X42210000Y18000000D03*
X41190000Y18000000D03*
%TD*%
%TO.C,R7*%
X10410173Y13100000D03*
X9390173Y13100000D03*
%TD*%
D39*
%TO.C,X2*%
X29320000Y15600000D03*
X27920000Y15600000D03*
%TD*%
D40*
%TO.C,FID1*%
X2000000Y31000000D03*
%TD*%
%TO.C,FID2*%
X46000000Y31000000D03*
%TD*%
D34*
%TO.C,D3*%
X11600000Y13100000D03*
X12570000Y13100000D03*
%TD*%
D22*
%TO.C,C9*%
X27700000Y28400000D03*
X26740000Y28400000D03*
%TD*%
D12*
%TO.C,C8*%
X27395000Y29700000D03*
X25845000Y29700000D03*
%TD*%
D23*
%TO.C,SW1*%
X23010000Y3899998D03*
X23010000Y7300002D03*
%TD*%
D16*
%TO.C,R9*%
X4290000Y17900000D03*
X5310000Y17900000D03*
%TD*%
D41*
%TO.C,J4*%
X6600000Y10795099D03*
X6600000Y8795100D03*
X6600000Y6795099D03*
X6600000Y4795101D03*
%TD*%
D19*
%TO.C,U3*%
X10645100Y8750000D03*
X10645100Y7800000D03*
X10645100Y6850000D03*
X12920100Y6850000D03*
X12920100Y7800000D03*
X12920100Y8750000D03*
%TD*%
D42*
%TO.C,X1*%
X36000000Y29200000D03*
X34600000Y29200000D03*
X34600000Y28100000D03*
X36000000Y28100000D03*
%TD*%
D16*
%TO.C,R13*%
X35090000Y20000000D03*
X36110000Y20000000D03*
%TD*%
D40*
%TO.C,FID3*%
X46000000Y2000000D03*
%TD*%
D43*
%TO.C,U4*%
X27650000Y19262500D03*
X28150000Y19262500D03*
X28650000Y19262500D03*
X29150000Y19262500D03*
X29650000Y19262500D03*
X30150000Y19262500D03*
X30650000Y19262500D03*
X31150000Y19262500D03*
X31650000Y19262500D03*
X32150000Y19262500D03*
X32650000Y19262500D03*
X33150000Y19262500D03*
D44*
X33837500Y19950000D03*
X33837500Y20450000D03*
X33837500Y20950000D03*
X33837500Y21450000D03*
X33837500Y21950000D03*
X33837500Y22450000D03*
X33837500Y22950000D03*
X33837500Y23450000D03*
X33837500Y23950000D03*
X33837500Y24450000D03*
X33837500Y24950000D03*
X33837500Y25450000D03*
D43*
X33150000Y26137500D03*
X32650000Y26137500D03*
X32150000Y26137500D03*
X31650000Y26137500D03*
X31150000Y26137500D03*
X30650000Y26137500D03*
X30150000Y26137500D03*
X29650000Y26137500D03*
X29150000Y26137500D03*
X28650000Y26137500D03*
X28150000Y26137500D03*
X27650000Y26137500D03*
D44*
X26962500Y25450000D03*
X26962500Y24950000D03*
X26962500Y24450000D03*
X26962500Y23950000D03*
X26962500Y23450000D03*
X26962500Y22950000D03*
X26962500Y22450000D03*
X26962500Y21950000D03*
X26962500Y21450000D03*
X26962500Y20950000D03*
X26962500Y20450000D03*
X26962500Y19950000D03*
D45*
X30400000Y22700000D03*
%TD*%
M02*
